<svg width="988" height="715" viewBox="0 0 988 715" fill="none" xmlns="http://www.w3.org/2000/svg">
<g id="Group 1">
<path id="Vector" d="M146.409 506.154C145.598 504.927 144.529 503.893 143.276 503.124C142.023 502.356 140.616 501.871 139.156 501.705C137.695 501.539 136.216 501.695 134.822 502.162C133.428 502.629 132.154 503.396 131.088 504.41L99.3339 488.019L101.308 506.484L131.16 519.217C132.98 520.894 135.353 521.845 137.827 521.889C140.302 521.934 142.707 521.069 144.587 519.459C146.466 517.848 147.69 515.605 148.026 513.152C148.362 510.7 147.786 508.21 146.409 506.154H146.409Z" fill="#A0616A"/>
<path id="Vector_2" d="M118.188 513.586C117.614 513.849 116.99 513.989 116.358 513.996C115.726 514.003 115.1 513.876 114.519 513.625L84.3573 500.541C74.0441 496.069 65.7065 488.003 60.8953 477.843L45.0383 444.372C43.868 442.869 43.0056 441.149 42.5004 439.312C41.9951 437.475 41.8569 435.557 42.0936 433.666C42.3304 431.776 42.9374 429.951 43.8801 428.295C44.8228 426.639 46.0826 425.186 47.5875 424.017C49.0923 422.849 50.8128 421.989 52.6504 421.486C54.488 420.983 56.4067 420.847 58.2969 421.086C60.187 421.325 62.0115 421.934 63.666 422.879C65.3205 423.824 66.7725 425.085 67.9391 426.592L95.8118 478.305L121.549 497.747C122.285 498.306 122.832 499.078 123.116 499.958C123.4 500.838 123.407 501.784 123.135 502.668L120.609 510.827C120.338 511.702 119.806 512.474 119.085 513.039C118.809 513.256 118.508 513.439 118.188 513.586V513.586Z" fill="#CCCCCC"/>
<path id="Vector_3" d="M44.3404 405.008C57.9051 405.008 68.9015 394.012 68.9015 380.447C68.9015 366.883 57.9051 355.886 44.3404 355.886C30.7758 355.886 19.7794 366.883 19.7794 380.447C19.7794 394.012 30.7758 405.008 44.3404 405.008Z" fill="#A0616A"/>
<path id="Vector_4" d="M54.289 702.644L66.548 702.643L72.381 655.355L54.286 655.356L54.289 702.644Z" fill="#A0616A"/>
<path id="Vector_5" d="M90.1927 714.026L51.662 714.028L51.6613 699.141L75.3051 699.14C79.2534 699.14 83.04 700.708 85.8319 703.5C88.6239 706.291 90.1925 710.078 90.1927 714.026L90.1927 714.026Z" fill="#2F2E41"/>
<path id="Vector_6" d="M14.289 702.644L26.548 702.643L32.381 655.355L14.286 655.356L14.289 702.644Z" fill="#A0616A"/>
<path id="Vector_7" d="M50.1927 714.026L11.662 714.028L11.6613 699.141L35.3051 699.14C39.2534 699.14 43.04 700.708 45.8319 703.5C48.6239 706.291 50.1925 710.078 50.1927 714.026L50.1927 714.026Z" fill="#2F2E41"/>
<path id="Vector_8" d="M10.0078 689.108C9.58537 688.626 9.27091 688.059 9.08551 687.445C8.90011 686.831 8.84804 686.185 8.93279 685.549L30.3974 524.564L83.726 533.621L89.4174 530.206L74.6999 682.95C74.5775 683.981 74.1032 684.938 73.357 685.661C72.6108 686.383 71.6383 686.825 70.6037 686.914L54.456 688.259C53.814 688.313 53.168 688.228 52.5616 688.011C51.9553 687.793 51.4027 687.448 50.9413 686.998C50.4799 686.549 50.1205 686.005 49.8873 685.405C49.6541 684.804 49.5525 684.16 49.5896 683.517L53.7702 610.775C53.7776 610.652 53.7389 610.53 53.6615 610.433C53.5842 610.336 53.4738 610.272 53.3516 610.252C53.2294 610.232 53.1041 610.258 53.0001 610.325C52.896 610.392 52.8206 610.495 52.7883 610.615L32.1052 687.315C31.8466 688.27 31.2811 689.113 30.496 689.715C29.7108 690.316 28.7496 690.643 27.7605 690.644H13.3935C12.7523 690.644 12.1185 690.507 11.5345 690.242C10.9506 689.977 10.4301 689.591 10.0078 689.108V689.108Z" fill="#2F2E41"/>
<path id="Vector_9" d="M46.9402 535.833C46.3281 535.278 45.5412 534.956 44.7162 534.922C43.8912 534.887 43.0802 535.143 42.424 535.644L31.7622 543.937C31.182 544.39 30.4996 544.693 29.7748 544.82C29.0501 544.948 28.3052 544.895 27.6055 544.667C26.9058 544.44 26.2726 544.044 25.7617 543.514C25.2507 542.985 24.8775 542.338 24.6748 541.631C19.445 523.315 7.59641 477.213 10.5153 444.764C12.1699 426.372 28.0525 412.393 45.9203 413.566C58.1359 414.381 66.1723 421.427 69.8063 434.51C78.729 466.633 88.5346 525.554 90.4096 537.041C90.5576 537.932 90.4328 538.847 90.0515 539.666C89.6703 540.485 89.0504 541.169 88.2731 541.63C83.2286 544.658 77.4649 546.28 71.5812 546.327C64.4621 546.327 55.926 543.848 46.9402 535.833Z" fill="#CCCCCC"/>
<path id="Vector_10" d="M50.9631 547.259C51.0825 545.794 50.8791 544.32 50.3674 542.942C49.8557 541.564 49.048 540.315 48.0013 539.283C46.9546 538.25 45.6942 537.46 44.3091 536.968C42.924 536.475 41.4477 536.293 39.9843 536.432L25.1124 503.939L15.2709 519.687L30.9022 548.128C31.3 550.571 32.5801 552.783 34.4999 554.346C36.4198 555.908 38.8459 556.711 41.3186 556.604C43.7914 556.497 46.139 555.487 47.9165 553.764C49.694 552.042 50.778 549.727 50.9631 547.259Z" fill="#A0616A"/>
<path id="Vector_11" d="M24.1708 535.692C23.5561 535.545 22.9791 535.27 22.4776 534.885C21.976 534.5 21.5611 534.014 21.2597 533.459L5.60051 504.549C0.245291 494.666 -1.33764 483.174 1.14616 472.211L9.32463 436.088C9.33205 434.183 9.71482 432.298 10.4511 430.541C11.1873 428.784 12.2627 427.19 13.6155 425.849C14.9684 424.508 16.5723 423.446 18.3356 422.725C20.0989 422.005 21.9869 421.638 23.8918 421.648C25.7967 421.657 27.6811 422.042 29.4373 422.78C31.1934 423.518 32.7869 424.595 34.1266 425.949C35.4663 427.303 36.526 428.908 37.2451 430.672C37.9641 432.436 38.3285 434.324 38.3173 436.229L28.3358 494.122L36.5895 525.302C36.8242 526.197 36.7785 527.142 36.4586 528.01C36.1387 528.877 35.5601 529.626 34.801 530.154L27.7779 535.015C27.0245 535.536 26.1302 535.815 25.2142 535.815C24.8628 535.815 24.5126 535.774 24.1708 535.692V535.692Z" fill="#CCCCCC"/>
<path id="Vector_12" opacity="0.2" d="M36.325 460.644L27.325 498.644L40.325 530.644L31.325 499.644L36.325 460.644Z" fill="black"/>
<path id="Vector_13" d="M30.3247 400.644C28.1399 400.685 25.9688 400.292 23.9367 399.488C23.0426 399.144 22.1144 398.861 21.222 398.516C13.3403 395.471 8.14832 387.077 7.96237 378.629C7.77642 370.182 12.151 361.983 18.647 356.58C25.143 351.176 33.5569 348.402 41.982 347.761C51.0572 347.07 61.2762 349.371 66.3474 356.929C67.6972 358.941 68.6412 361.381 67.8414 363.81C67.6018 364.543 67.1739 365.201 66.6006 365.716C64.3359 367.731 62.0781 366.216 59.7694 366.082C56.5962 365.898 53.746 368.467 52.7216 371.476C51.6973 374.485 52.1482 377.798 52.9753 380.867C53.6054 382.713 54.0027 384.632 54.1578 386.577C54.2246 387.552 54.0411 388.528 53.6249 389.413C53.2086 390.298 52.5733 391.061 51.7793 391.631C49.7964 392.83 47.1923 392.136 45.2082 390.94C43.2242 389.743 41.5098 388.079 39.3667 387.199C37.2236 386.318 34.3443 386.513 33.0969 388.466C32.7004 389.176 32.4321 389.951 32.3042 390.754C31.1859 395.849 31.4429 395.549 30.3247 400.644L30.3247 400.644Z" fill="#2F2E41"/>
<path id="Vector_14" d="M757.334 230.48H150.334C148.022 230.482 145.805 231.401 144.17 233.036C142.535 234.671 141.616 236.888 141.614 239.2V650.52C141.616 652.832 142.535 655.049 144.17 656.684C145.805 658.319 148.022 659.238 150.334 659.24H757.334C758.595 659.24 759.84 658.966 760.985 658.438C762.13 657.91 763.146 657.139 763.964 656.18C764.033 656.105 764.097 656.025 764.154 655.94C764.674 655.304 765.096 654.592 765.404 653.83C765.843 652.782 766.067 651.656 766.063 650.52V394.47H763.574V650.52C763.575 651.736 763.216 652.926 762.544 653.94C761.946 654.832 761.135 655.561 760.184 656.06C759.303 656.515 758.325 656.752 757.334 656.75H150.334C148.682 656.748 147.099 656.091 145.931 654.923C144.763 653.755 144.106 652.172 144.104 650.52V239.2C144.106 237.548 144.763 235.965 145.931 234.797C147.099 233.629 148.682 232.972 150.334 232.97H757.334C758.987 232.97 760.573 233.626 761.743 234.794C762.913 235.962 763.571 237.547 763.574 239.2V294.47H766.064V239.2C766.061 236.886 765.14 234.668 763.503 233.033C761.867 231.398 759.648 230.48 757.334 230.48V230.48Z" fill="#3F3D56"/>
<path id="Vector_15" d="M764.812 265.433H142.855V267.926H764.812V265.433Z" fill="#3F3D56"/>
<path id="Vector_16" d="M164.044 256.658C168.174 256.658 171.522 253.31 171.522 249.18C171.522 245.05 168.174 241.701 164.044 241.701C159.914 241.701 156.565 245.05 156.565 249.18C156.565 253.31 159.914 256.658 164.044 256.658Z" fill="#CCCCCC"/>
<path id="Vector_17" d="M185.544 256.658C189.675 256.658 193.023 253.31 193.023 249.18C193.023 245.05 189.675 241.701 185.544 241.701C181.414 241.701 178.066 245.05 178.066 249.18C178.066 253.31 181.414 256.658 185.544 256.658Z" fill="#CCCCCC"/>
<path id="Vector_18" d="M207.045 256.658C211.175 256.658 214.523 253.31 214.523 249.18C214.523 245.05 211.175 241.701 207.045 241.701C202.915 241.701 199.566 245.05 199.566 249.18C199.566 253.31 202.915 256.658 207.045 256.658Z" fill="#CCCCCC"/>
<path id="Vector_19" d="M914.912 368.722H738.912C736.79 368.722 734.755 367.879 733.255 366.379C731.755 364.878 730.912 362.844 730.912 360.722C730.912 358.6 731.755 356.565 733.255 355.065C734.755 353.565 736.79 352.722 738.912 352.722H914.912C917.034 352.722 919.068 353.565 920.569 355.065C922.069 356.565 922.912 358.6 922.912 360.722C922.912 362.844 922.069 364.878 920.569 366.379C919.068 367.879 917.034 368.722 914.912 368.722Z" fill="#CCCCCC"/>
<path id="Vector_20" d="M799.912 334.722H738.912C736.79 334.722 734.755 333.879 733.255 332.379C731.755 330.878 730.912 328.844 730.912 326.722C730.912 324.6 731.755 322.565 733.255 321.065C734.755 319.565 736.79 318.722 738.912 318.722H799.912C802.034 318.722 804.069 319.565 805.569 321.065C807.069 322.565 807.912 324.6 807.912 326.722C807.912 328.844 807.069 330.878 805.569 332.379C804.069 333.879 802.034 334.722 799.912 334.722Z" fill="#CCCCCC"/>
<path id="Vector_21" d="M932.554 292.47H615.554C611.047 292.476 606.727 294.269 603.54 297.456C600.353 300.643 598.56 304.963 598.554 309.47V379.47C598.56 383.977 600.353 388.297 603.54 391.484C606.727 394.671 611.047 396.464 615.554 396.47H932.554C937.06 396.464 941.381 394.671 944.567 391.484C947.754 388.297 949.547 383.977 949.554 379.47V309.47C949.547 304.963 947.754 300.643 944.567 297.456C941.381 294.269 937.06 292.476 932.554 292.47V292.47ZM947.554 379.47C947.549 383.447 945.967 387.259 943.155 390.071C940.343 392.883 936.53 394.465 932.554 394.47H615.554C611.577 394.465 607.764 392.883 604.952 390.071C602.14 387.259 600.559 383.447 600.554 379.47V309.47C600.559 305.493 602.14 301.681 604.952 298.869C607.764 296.057 611.577 294.475 615.554 294.47H932.554C936.53 294.475 940.343 296.057 943.155 298.869C945.967 301.681 947.549 305.493 947.554 309.47V379.47Z" fill="#3F3D56"/>
<path id="Vector_22" d="M947.554 320.47C960.256 320.47 970.554 310.173 970.554 297.47C970.554 284.767 960.256 274.47 947.554 274.47C934.851 274.47 924.554 284.767 924.554 297.47C924.554 310.173 934.851 320.47 947.554 320.47Z" fill="#6C63FF"/>
<path id="Vector_23" d="M946.847 310.405C946.754 310.312 946.68 310.202 946.63 310.081C946.579 309.959 946.554 309.829 946.554 309.698V284.242C946.554 283.977 946.659 283.723 946.847 283.535C947.034 283.348 947.288 283.242 947.554 283.242C947.819 283.242 948.073 283.348 948.261 283.535C948.448 283.723 948.554 283.977 948.554 284.242V309.698C948.554 309.896 948.495 310.089 948.385 310.253C948.275 310.418 948.119 310.546 947.936 310.622C947.754 310.697 947.553 310.717 947.359 310.679C947.165 310.64 946.986 310.545 946.847 310.405V310.405Z" fill="white"/>
<path id="Vector_24" d="M934.119 297.677C933.979 297.537 933.884 297.359 933.845 297.165C933.806 296.971 933.826 296.77 933.902 296.587C933.978 296.405 934.106 296.249 934.27 296.139C934.435 296.029 934.628 295.97 934.826 295.97H960.282C960.547 295.97 960.801 296.075 960.989 296.263C961.176 296.45 961.282 296.705 961.282 296.97C961.282 297.235 961.176 297.489 960.989 297.677C960.801 297.865 960.547 297.97 960.282 297.97H934.826C934.694 297.97 934.564 297.944 934.443 297.894C934.322 297.844 934.211 297.77 934.119 297.677V297.677Z" fill="white"/>
<path id="Vector_25" d="M975.087 603.176H927.077C927.077 604.556 877.597 605.676 877.597 605.676C876.821 606.261 876.113 606.932 875.487 607.676C873.608 609.918 872.581 612.751 872.587 615.676V617.676C872.588 620.991 873.906 624.17 876.25 626.514C878.594 628.858 881.772 630.175 885.087 630.176H975.087C978.401 630.174 981.579 628.856 983.923 626.512C986.266 624.169 987.584 620.991 987.587 617.676V615.676C987.583 612.363 986.264 609.186 983.921 606.843C981.578 604.5 978.401 603.181 975.087 603.176Z" fill="#3F3D56"/>
<path id="Vector_26" d="M937.082 629.68H924.082V713.68H937.082V629.68Z" fill="#3F3D56"/>
<path id="Vector_27" d="M974.082 713.223C974.082 714.628 954.383 713.766 930.082 713.766C905.782 713.766 886.082 714.628 886.082 713.223C886.082 711.819 905.782 700.68 930.082 700.68C954.383 700.68 974.082 711.819 974.082 713.223Z" fill="#3F3D56"/>
<path id="Vector_28" d="M934.753 490.608C950.217 490.608 962.753 478.072 962.753 462.608C962.753 447.145 950.217 434.608 934.753 434.608C919.289 434.608 906.753 447.145 906.753 462.608C906.753 478.072 919.289 490.608 934.753 490.608Z" fill="#2F2E41"/>
<path id="Vector_29" d="M865.073 702.175L852.813 702.174L846.98 654.886L865.075 654.887L865.073 702.175Z" fill="#FFB8B8"/>
<path id="Vector_30" d="M844.056 698.671H867.699V713.558H829.169C829.169 709.61 830.737 705.823 833.529 703.032C836.321 700.24 840.107 698.671 844.056 698.671V698.671Z" fill="#2F2E41"/>
<path id="Vector_31" d="M845.935 695.332L834.238 691.661L842.83 644.796L860.094 650.214L845.935 695.332Z" fill="#FFB8B8"/>
<path id="Vector_32" d="M826.931 685.697L849.49 692.777L845.033 706.981L808.27 695.444C809.452 691.677 812.082 688.534 815.582 686.706C819.082 684.878 823.164 684.515 826.931 685.697V685.697Z" fill="#2F2E41"/>
<path id="Vector_33" d="M942.253 594.979C941.97 592.596 941.461 590.246 940.733 587.959L938.443 585.079L932.483 577.599L932.224 577.609C931.783 577.629 929.953 577.729 927.124 577.949H927.093C925.343 578.089 923.203 578.269 920.774 578.499C920.133 578.569 919.463 578.629 918.774 578.699V589.139H931.274C931.881 589.14 932.467 589.362 932.924 589.763C933.38 590.164 933.675 590.717 933.753 591.319C933.763 591.429 933.774 591.529 933.774 591.639C933.773 592.302 933.51 592.938 933.041 593.407C932.572 593.876 931.936 594.139 931.274 594.139H858.673C857.748 594.753 856.86 595.421 856.013 596.139C853.456 598.119 851.613 600.878 850.763 603.999C846.523 622.639 838.793 657.399 836.513 667.609C836.348 668.379 836.385 669.178 836.622 669.928C836.859 670.678 837.287 671.354 837.863 671.889C838.289 672.286 838.788 672.595 839.334 672.799L848.354 676.179C848.724 676.316 849.11 676.407 849.503 676.449C849.553 676.449 849.593 676.459 849.644 676.459C849.737 676.468 849.83 676.471 849.923 676.469C850.835 676.466 851.725 676.187 852.476 675.669C853.227 675.152 853.805 674.42 854.133 673.569L861.253 654.889L872.224 626.089L876.564 614.699C881.593 615.879 923.794 625.219 937.923 610.169C939.317 608.686 940.417 606.952 941.164 605.059C942.353 601.841 942.727 598.378 942.253 594.979Z" fill="#2F2E41"/>
<path id="Vector_34" d="M954.493 597.699C954.273 596.809 954.023 595.889 953.733 594.959L945.483 584.599L945.224 584.609C944.703 584.639 942.233 584.769 938.443 585.079C934.144 585.439 928.133 586.019 921.383 586.929C921.184 586.949 920.974 586.979 920.774 587.009C920.113 587.099 919.443 587.189 918.774 587.289V589.139H931.274C931.881 589.14 932.467 589.362 932.924 589.763C933.38 590.164 933.675 590.717 933.753 591.319C933.763 591.429 933.774 591.529 933.774 591.639C933.773 592.302 933.51 592.938 933.041 593.407C932.572 593.875 931.936 594.139 931.274 594.139H887.093C885.164 594.769 883.303 595.429 881.523 596.139C872.184 599.839 865.193 604.689 863.763 610.999C863.283 613.119 862.753 615.449 862.193 617.929C860.113 627.149 857.584 638.439 855.293 648.699V648.709C854.823 650.829 854.354 652.889 853.903 654.889C851.993 663.489 850.374 670.779 849.513 674.609C849.493 674.719 849.474 674.819 849.453 674.929V674.949C849.354 675.724 849.45 676.511 849.733 677.239L849.743 677.249V677.259C850.018 677.956 850.466 678.572 851.044 679.049C851.43 679.368 851.866 679.621 852.334 679.799L861.354 683.179C861.856 683.367 862.387 683.465 862.923 683.469C863.675 683.471 864.415 683.282 865.073 682.919C866.019 682.407 866.749 681.573 867.133 680.569L886.553 629.609L889.563 621.699C894.593 622.879 936.793 632.209 950.923 617.169C953.715 614.148 955.308 610.211 955.403 606.099C955.502 603.27 955.195 600.441 954.493 597.699V597.699Z" fill="#2F2E41"/>
<path id="Vector_35" d="M953.383 509.479C953.224 509.289 953.053 509.099 952.874 508.919C950.21 506.119 946.921 503.99 943.276 502.705C939.631 501.421 935.734 501.018 931.903 501.529C928.562 501.968 925.252 502.619 921.993 503.479C917.785 504.561 913.931 506.722 910.813 509.749C908.385 512.104 906.472 514.938 905.196 518.071C903.921 521.204 903.31 524.568 903.403 527.949C903.443 529.319 903.453 530.719 903.434 532.139C903.434 532.799 903.423 533.469 903.414 534.139H913.273C913.701 534.138 914.128 534.188 914.543 534.289C915.747 534.577 916.818 535.261 917.585 536.231C918.353 537.202 918.771 538.402 918.773 539.639V586.159C919.443 586.349 920.113 586.539 920.773 586.739C920.983 586.809 921.184 586.869 921.383 586.929C921.613 586.999 921.843 587.069 922.064 587.139C924.093 587.769 926.077 588.436 928.013 589.139H931.273C931.881 589.14 932.467 589.361 932.924 589.763C933.38 590.164 933.675 590.717 933.753 591.319C934.434 591.589 935.093 591.859 935.743 592.129C938.053 593.089 940.243 594.049 942.253 594.979C944.963 596.219 947.374 597.399 949.394 598.429C950.029 598.753 950.731 598.924 951.443 598.929C952.379 598.926 953.29 598.625 954.043 598.069C954.2 597.954 954.35 597.83 954.493 597.699C955.028 597.197 955.433 596.573 955.672 595.879C955.91 595.185 955.976 594.444 955.863 593.719C954.831 585.864 954.53 577.93 954.963 570.019C955.243 563.369 955.843 556.549 956.624 549.959C957.043 546.389 957.513 542.889 958.003 539.519C958.474 536.299 958.974 533.209 959.463 530.289C960.106 526.586 959.893 522.786 958.839 519.178C957.785 515.571 955.918 512.253 953.383 509.479V509.479Z" fill="#6C63FF"/>
<path id="Vector_36" d="M912.393 510.299C911.88 510.079 911.352 509.895 910.813 509.749C908.149 509.032 905.314 509.296 902.829 510.495C900.343 511.694 898.371 513.747 897.273 516.279L890.403 532.139L889.543 534.139H913.273C913.701 534.138 914.128 534.188 914.543 534.289L915.343 532.439L918.383 525.419C919.591 522.62 919.638 519.455 918.515 516.621C917.392 513.786 915.191 511.512 912.393 510.299V510.299Z" fill="#6C63FF"/>
<path id="Vector_37" d="M933.729 493.721C947.294 493.721 958.29 482.724 958.29 469.16C958.29 455.595 947.294 444.599 933.729 444.599C920.165 444.599 909.168 455.595 909.168 469.16C909.168 482.724 920.165 493.721 933.729 493.721Z" fill="#FFB8B8"/>
<path id="Vector_38" d="M908.726 457.093C920.36 464.194 933.476 468.516 947.052 469.721L943.013 464.88C945.954 465.968 949.049 466.583 952.183 466.701C955.313 466.653 958.593 465.447 960.37 462.87C961.162 461.588 961.633 460.134 961.742 458.632C961.851 457.129 961.594 455.622 960.995 454.24C959.764 451.483 957.848 449.087 955.429 447.28C951.141 443.888 946.081 441.61 940.699 440.648C935.317 439.686 929.781 440.071 924.584 441.767C921.019 442.833 917.827 444.881 915.372 447.677C913.043 450.549 908.561 453.108 909.753 456.608L908.726 457.093Z" fill="#2F2E41"/>
<path id="Vector_39" d="M937.859 437.272C930.113 429.416 920.738 423.354 910.396 419.513C903.757 417.053 896.532 415.534 889.591 416.93C882.651 418.327 876.087 423.128 874.151 429.938C872.567 435.506 874.202 441.502 876.659 446.744C879.116 451.985 882.397 456.846 884.384 462.283C886.411 467.831 887.021 473.798 886.158 479.641C885.294 485.485 882.985 491.02 879.44 495.745C875.895 500.469 871.226 504.234 865.857 506.696C860.488 509.159 854.589 510.241 848.695 509.846C855.514 510.76 861.8 513.965 868.466 515.671C875.131 517.376 882.999 517.261 887.952 512.485C893.193 507.433 893.298 499.218 893.044 491.943C892.668 481.128 892.291 470.313 891.914 459.498C891.722 453.982 891.558 448.29 893.547 443.142C895.536 437.994 900.264 433.487 905.782 433.534C909.965 433.569 913.667 436.103 917.021 438.602C920.375 441.1 923.925 443.766 928.091 444.138C932.258 444.51 937.014 441.426 936.703 437.255L937.859 437.272Z" fill="#2F2E41"/>
<path id="Vector_40" d="M958.003 539.519L943.983 539.899L942.963 549.749L942.733 552.029L920.773 561.889L918.773 562.789V580.319L920.773 579.749L927.093 577.949H927.123L954.963 570.019L955.283 569.929C957.533 569.28 959.513 567.922 960.929 566.057C962.345 564.192 963.122 561.921 963.143 559.579L963.213 547.949L963.273 539.379L958.003 539.519Z" fill="#FFB8B8"/>
<path id="Vector_41" d="M962.564 520.039C962.377 516.995 960.988 514.149 958.703 512.128C956.417 510.107 953.423 509.077 950.379 509.264C947.334 509.451 944.488 510.84 942.468 513.125C940.447 515.41 939.417 518.405 939.604 521.449L941.133 546.409C941.175 547.066 941.36 547.706 941.676 548.283C941.993 548.86 942.432 549.361 942.963 549.749C943.809 550.379 944.851 550.688 945.903 550.619L956.624 549.959L959.874 549.759C960.466 549.73 961.045 549.581 961.578 549.322C962.111 549.062 962.586 548.697 962.974 548.249C963.06 548.154 963.14 548.054 963.213 547.949C963.849 547.098 964.161 546.049 964.093 544.989L962.564 520.039Z" fill="#6C63FF"/>
<path id="Vector_42" d="M922.064 587.139H920.773V587.009C920.113 587.099 919.443 587.189 918.773 587.289V589.139H928.013C926.073 588.439 924.09 587.773 922.064 587.139ZM922.064 587.139H920.773V587.009C920.113 587.099 919.443 587.189 918.773 587.289V589.139H928.013C926.073 588.439 924.09 587.773 922.064 587.139ZM931.273 587.139H920.773V539.639C920.77 538.013 920.239 536.432 919.259 535.134C918.28 533.835 916.906 532.89 915.343 532.439C914.672 532.237 913.975 532.136 913.273 532.139H824.273C822.285 532.142 820.379 532.933 818.973 534.339C817.567 535.745 816.776 537.651 816.773 539.639V588.639C816.774 590.628 817.565 592.535 818.971 593.942C820.377 595.348 822.285 596.139 824.273 596.139H931.273C932.381 596.137 933.449 595.727 934.274 594.988C935.099 594.248 935.622 593.23 935.743 592.129C935.764 591.967 935.774 591.803 935.773 591.639C935.772 590.446 935.297 589.303 934.453 588.459C933.61 587.616 932.466 587.141 931.273 587.139V587.139ZM933.773 591.639C933.773 592.302 933.51 592.938 933.041 593.407C932.572 593.875 931.936 594.139 931.273 594.139H824.273C822.815 594.138 821.417 593.559 820.385 592.527C819.354 591.496 818.774 590.098 818.773 588.639V539.639C818.774 538.181 819.354 536.782 820.385 535.751C821.417 534.72 822.815 534.14 824.273 534.139H913.273C913.701 534.138 914.128 534.188 914.544 534.289C915.747 534.577 916.818 535.261 917.586 536.231C918.353 537.202 918.771 538.402 918.773 539.639V589.139H931.273C931.881 589.14 932.467 589.362 932.924 589.763C933.38 590.164 933.675 590.717 933.753 591.319C933.763 591.429 933.773 591.529 933.773 591.639V591.639ZM922.064 587.139H920.773V587.009C920.113 587.099 919.443 587.189 918.773 587.289V589.139H928.013C926.073 588.439 924.09 587.773 922.064 587.139Z" fill="#3F3D56"/>
<path id="Vector_43" d="M332.854 71.368C332.831 71.8248 332.845 72.2828 332.895 72.7375L301.493 99.0915L292.129 95.7009L285.164 109.165L305.638 118.91L339.968 80.3863C341.701 80.7008 343.489 80.4801 345.094 79.7535C346.699 79.027 348.045 77.829 348.953 76.3189C349.86 74.8089 350.287 73.0584 350.175 71.3001C350.064 69.5418 349.419 67.8592 348.328 66.476C347.237 65.0928 345.751 64.0745 344.067 63.5566C342.383 63.0388 340.581 63.0458 338.901 63.5769C337.221 64.1079 335.743 65.1378 334.663 66.5295C333.582 67.9212 332.951 69.6089 332.854 71.3679L332.854 71.368Z" fill="#FFB8B8"/>
<path id="Vector_44" d="M290.738 115.623L260.414 104.677C257.631 103.673 255.36 101.603 254.102 98.9239C252.844 96.2449 252.702 93.1758 253.707 90.3919C254.711 87.6081 256.781 85.3374 259.46 84.0794C262.139 82.8214 265.208 82.6792 267.992 83.6841L298.316 94.6294C298.775 94.7952 299.197 95.0498 299.558 95.3789C299.92 95.7079 300.212 96.1048 300.42 96.5469C300.627 96.9891 300.746 97.4678 300.768 97.9557C300.791 98.4437 300.717 98.9313 300.551 99.3907L295.5 113.387C295.164 114.314 294.474 115.07 293.581 115.489C292.689 115.908 291.666 115.956 290.738 115.623V115.623Z" fill="#CCCCCC"/>
<path id="Vector_45" d="M268.53 222.252L278.664 222.251L283.485 183.161L268.528 183.162L268.53 222.252Z" fill="#FFB8B8"/>
<path id="Vector_46" d="M298.209 231.661L266.358 231.662L266.358 219.356L285.903 219.355C289.166 219.355 292.296 220.652 294.604 222.959C296.912 225.267 298.209 228.397 298.209 231.661V231.661L298.209 231.661Z" fill="#2F2E41"/>
<path id="Vector_47" d="M243.484 209.16L251.774 214.989L278.202 185.786L265.967 177.184L243.484 209.16Z" fill="#FFB8B8"/>
<path id="Vector_48" d="M261.35 231.929L235.295 213.609L242.373 203.543L258.361 214.784C261.031 216.661 262.846 219.522 263.406 222.737C263.967 225.953 263.227 229.259 261.35 231.929V231.929L261.35 231.929Z" fill="#2F2E41"/>
<path id="Vector_49" d="M290.705 151.836C290.705 151.836 315.996 148.852 311.457 165.264C306.917 181.675 256.336 195.849 256.336 195.849L290.705 151.836Z" fill="#FFB8B8"/>
<path id="Vector_50" d="M273.298 68.0967C284.511 68.0967 293.601 59.0068 293.601 47.7938C293.601 36.5808 284.511 27.4908 273.298 27.4908C262.085 27.4908 252.995 36.5808 252.995 47.7938C252.995 59.0068 262.085 68.0967 273.298 68.0967Z" fill="#FFB8B8"/>
<path id="Vector_51" d="M208.55 192.488C196.998 179.036 192.955 158.39 211.379 141.219C215.929 137.083 221.081 133.661 226.658 131.072L241.507 89.5467C243.049 85.2104 245.877 81.4475 249.613 78.76C253.35 76.0725 257.817 74.5881 262.418 74.505C266.886 74.3121 271.304 75.5072 275.065 77.9262C278.827 80.3451 281.747 83.8692 283.425 88.0145C285.238 92.2316 285.446 96.9666 284.008 101.326C279.588 115.091 273.783 128.373 266.683 140.967L267.451 147.109L304.982 150.445L304.632 151.014C304.45 151.311 286.081 179.298 262.582 197.874C254.548 204.226 246.239 206.858 238.397 206.857C226.507 206.857 215.691 200.803 208.55 192.488Z" fill="#CCCCCC"/>
<path id="Vector_52" d="M205.008 54.1634C208.6 49.8832 210.141 44.2848 211.38 38.8363C213.341 30.2155 214.859 21.3013 219.216 13.6082C223.572 5.91521 231.578 -0.459219 240.406 0.0259912C249.183 0.508431 256.28 7.57012 260.046 15.6049C260.958 15.2507 261.935 15.0919 262.912 15.1391C263.89 15.1862 264.846 15.4381 265.72 15.8785C268.435 17.3651 269.45 21.5907 267.19 23.7061C269.567 22.5744 272.155 21.9556 274.787 21.89C277.418 21.8244 280.034 22.3134 282.464 23.3253C285.589 24.6557 288.287 26.8222 290.26 29.5865C292.233 32.3509 293.405 35.6059 293.648 38.9935C293.743 40.3685 293.554 41.7482 293.093 43.0473C292.633 44.3463 291.911 45.537 290.971 46.5454C287.076 50.5556 281.566 49.1724 276.668 48.1508C272.04 47.1859 266.405 46.9254 263.798 51.3341C262.771 53.1712 262.483 55.331 262.994 57.3728C263.993 61.7739 267.251 64.8395 270.412 67.7733L270.929 68.7338C259.768 70.9104 247.579 63.2877 244.651 52.2993C241.723 41.311 248.503 28.6343 259.268 24.9686C258.551 24.9909 257.842 24.8216 257.213 24.478C256.584 24.1344 256.058 23.6291 255.689 23.0142C255.321 22.3994 255.123 21.6973 255.117 20.9805C255.111 20.2638 255.296 19.5584 255.654 18.9371C252.674 17.2678 249.302 16.4265 245.887 16.5004C240.327 16.8652 235.514 20.8233 232.621 25.5853C229.727 30.3475 228.417 35.8748 227.089 41.2868C225.762 46.6988 224.325 52.2143 221.231 56.8488C219.088 60.0586 216.224 62.7232 212.869 64.6298C209.513 66.5364 205.758 67.6323 201.904 67.83C198.049 68.0277 194.202 67.3218 190.668 65.7685C187.135 64.2153 184.014 61.8577 181.554 58.884C185.442 60.7692 189.84 61.3284 194.076 60.4758C198.312 59.6233 202.152 57.406 205.008 54.1634Z" fill="#2F2E41"/>
<g id="icon5">
<path id="Vector_53" d="M357.256 608.824C354.682 608.812 352.151 608.159 349.893 606.922C347.635 605.686 345.721 603.905 344.324 601.743C342.928 599.58 342.093 597.103 341.894 594.537C341.696 591.97 342.142 589.394 343.19 587.043L361.006 547.293C346.975 534.882 335.746 519.626 328.066 502.54C320.386 485.454 316.432 466.929 316.465 448.197C316.465 375.012 376.005 315.47 449.192 315.47C522.378 315.47 581.918 375.012 581.918 448.197C581.918 521.382 522.378 580.924 449.192 580.924C436.389 580.911 423.656 579.035 411.393 575.356L365.924 606.139C363.369 607.882 360.349 608.818 357.256 608.824V608.824ZM449.192 333.99C425.506 333.976 402.402 341.332 383.083 355.036C363.765 368.741 349.188 388.117 341.374 410.477C333.561 432.837 332.897 457.074 339.474 479.828C346.052 502.583 359.546 522.727 378.085 537.469L383.698 541.945L364.528 584.719L408.519 554.937L412.863 556.396C428.555 561.668 445.205 563.464 461.66 561.661C478.115 559.858 493.981 554.498 508.158 545.954C522.336 537.409 534.486 525.884 543.767 512.177C553.047 498.469 559.236 482.908 561.905 466.571C564.574 450.234 563.658 433.512 559.221 417.565C554.785 401.617 546.933 386.824 536.211 374.212C525.489 361.601 512.153 351.471 497.127 344.526C482.102 337.58 465.745 333.985 449.192 333.99Z" fill="#3F3D56"/>
<path id="Vector_54" d="M449.192 460.544C459.42 460.544 467.712 452.252 467.712 442.023C467.712 431.795 459.42 423.503 449.192 423.503C438.963 423.503 430.672 431.795 430.672 442.023C430.672 452.252 438.963 460.544 449.192 460.544Z" fill="#3F3D56"/>
<path id="Vector_55" d="M396.718 460.544C406.946 460.544 415.238 452.252 415.238 442.023C415.238 431.795 406.946 423.503 396.718 423.503C386.49 423.503 378.198 431.795 378.198 442.023C378.198 452.252 386.49 460.544 396.718 460.544Z" fill="#3F3D56"/>
<path id="Vector_56" d="M501.665 460.544C511.893 460.544 520.185 452.252 520.185 442.023C520.185 431.795 511.893 423.503 501.665 423.503C491.437 423.503 483.145 431.795 483.145 442.023C483.145 452.252 491.437 460.544 501.665 460.544Z" fill="#3F3D56"/>
<path id="Vector_57" d="M659.195 378.47C677.973 378.47 693.195 363.248 693.195 344.47C693.195 325.692 677.973 310.47 659.195 310.47C640.418 310.47 625.195 325.692 625.195 344.47C625.195 363.248 640.418 378.47 659.195 378.47Z" fill="#6C63FF"/>
<path id="Vector_58" d="M868.77 570.141C872.084 570.141 874.77 567.454 874.77 564.141C874.77 560.827 872.084 558.141 868.77 558.141C865.457 558.141 862.77 560.827 862.77 564.141C862.77 567.454 865.457 570.141 868.77 570.141Z" fill="#6C63FF"/>
<path id="Vector_59" d="M354.129 109.494C370.427 109.494 383.64 96.2807 383.64 79.9818C383.64 63.6829 370.427 50.47 354.129 50.47C337.83 50.47 324.617 63.6829 324.617 79.9818C324.617 96.2807 337.83 109.494 354.129 109.494Z" fill="#6C63FF"/>
<path id="Vector_60" d="M353.221 96.579C353.102 96.46 353.007 96.3186 352.943 96.1629C352.878 96.0072 352.845 95.8403 352.846 95.6717V63.0087C352.846 62.6685 352.981 62.3421 353.221 62.1015C353.462 61.8609 353.788 61.7257 354.129 61.7257C354.469 61.7257 354.795 61.8609 355.036 62.1015C355.276 62.3421 355.412 62.6685 355.412 63.0087V95.6717C355.412 95.9255 355.336 96.1735 355.195 96.3845C355.054 96.5955 354.854 96.7599 354.62 96.857C354.385 96.9542 354.127 96.9796 353.878 96.9301C353.629 96.8806 353.401 96.7584 353.221 96.579H353.221Z" fill="white"/>
<path id="Vector_61" d="M336.89 80.2475C336.71 80.0681 336.588 79.8395 336.539 79.5906C336.489 79.3417 336.515 79.0838 336.612 78.8493C336.709 78.6149 336.873 78.4145 337.084 78.2735C337.295 78.1325 337.543 78.0573 337.797 78.0573H370.46C370.8 78.0573 371.127 78.1924 371.367 78.433C371.608 78.6737 371.743 79 371.743 79.3403C371.743 79.6805 371.608 80.0069 371.367 80.2475C371.127 80.4881 370.8 80.6233 370.46 80.6233H337.797C337.629 80.6235 337.462 80.5905 337.306 80.526C337.15 80.4615 337.009 80.3669 336.89 80.2475Z" fill="white"/>
</g>
<path id="Vector_62" d="M333.871 99.7213C333.657 100.125 333.474 100.546 333.326 100.978L293.7 111.486L286.665 104.437L274.639 113.664L289.029 131.188L336.477 110.908C337.913 111.93 339.625 112.49 341.387 112.514C343.148 112.539 344.876 112.027 346.339 111.046C347.803 110.064 348.932 108.661 349.579 107.022C350.225 105.383 350.357 103.586 349.957 101.87C349.558 100.155 348.645 98.6011 347.341 97.4166C346.037 96.2321 344.403 95.4727 342.657 95.2394C340.91 95.0061 339.134 95.3099 337.565 96.1105C335.996 96.9111 334.707 98.1705 333.871 99.7213L333.871 99.7213Z" fill="#FFB8B8"/>
<path id="Vector_63" d="M276.939 121.879L254.143 99.0828C253.104 98.0472 252.279 96.8168 251.716 95.4621C251.153 94.1074 250.862 92.655 250.861 91.1879C250.86 89.7208 251.148 88.2679 251.709 86.9122C252.269 85.5566 253.092 84.3248 254.13 83.2874C255.167 82.25 256.399 81.4274 257.754 80.8666C259.11 80.3057 260.563 80.0177 262.03 80.0189C263.497 80.0202 264.95 80.3107 266.304 80.8739C267.659 81.437 268.889 82.2618 269.925 83.3009L292.721 106.097C293.066 106.442 293.34 106.852 293.527 107.304C293.714 107.755 293.811 108.239 293.811 108.727C293.811 109.216 293.714 109.699 293.527 110.151C293.34 110.602 293.066 111.012 292.721 111.357L282.2 121.879C281.502 122.575 280.556 122.966 279.569 122.966C278.583 122.966 277.637 122.575 276.939 121.879V121.879Z" fill="#CCCCCC"/>
</g>
</svg>
