<svg width="536" height="565" viewBox="0 0 536 565" fill="none" xmlns="http://www.w3.org/2000/svg">
<rect width="536" height="565" fill="#E5E5E5"/>
<g id="Group 1">
<path id="Vector" d="M469.74 435.303H9.33371V0.695297H469.74V435.303Z" fill="white"/>
<path id="Vector_2" d="M469.74 435.303H9.33371V0.695297H469.74V435.303ZM16.1361 428.881H462.937V7.11659H16.1361V428.881Z" fill="#E5E5E5"/>
<path id="Vector_3" d="M388.177 68.6899H188.802V74.5525H388.177V68.6899Z" fill="#E5E5E5"/>
<path id="Vector_4" d="M388.177 83.9327H188.802V89.7953H388.177V83.9327Z" fill="#E5E5E5"/>
<path id="Vector_5" d="M388.177 99.1755H188.802V105.038H388.177V99.1755Z" fill="#E5E5E5"/>
<path id="Vector_6" d="M388.177 199.577H188.802V205.439H388.177V199.577Z" fill="#E5E5E5"/>
<path id="Vector_7" d="M388.177 214.82H188.802V220.682H388.177V214.82Z" fill="#E5E5E5"/>
<path id="Vector_8" d="M388.177 230.062H188.802V235.925H388.177V230.062Z" fill="#E5E5E5"/>
<path id="Vector_9" d="M388.177 330.464H188.802V336.326H388.177V330.464Z" fill="#E5E5E5"/>
<path id="Vector_10" d="M388.177 345.707H188.802V351.569H388.177V345.707Z" fill="#E5E5E5"/>
<path id="Vector_11" d="M388.177 360.949H188.802V366.812H388.177V360.949Z" fill="#E5E5E5"/>
<path id="Vector_12" d="M108.988 115.4C105.582 113.706 102.026 112.293 98.362 111.179L97.8948 106.3L78.9444 104.372L76.5359 110.609L69.7351 113.018C69.4917 113.105 69.26 113.219 69.0449 113.357H69.0376C68.658 113.6 68.3348 113.912 68.0876 114.276C67.8404 114.64 67.6744 115.048 67.5997 115.475C67.5271 115.899 67.5443 116.333 67.6503 116.751L68.0098 118.142C68.5272 118.434 69.0593 118.712 69.5912 118.976L69.9292 119.139C70.7057 119.519 71.4965 119.879 72.3088 120.212C72.4742 120.279 72.6539 120.347 72.8192 120.415C72.8336 120.422 72.8407 120.422 72.855 120.429C73.2363 120.578 73.6171 120.721 74.0054 120.856C75.2806 121.316 76.5814 121.71 77.9018 122.037C81.2719 122.885 84.7449 123.314 88.2326 123.313C89.5051 123.313 90.7632 123.259 92.0069 123.143C94.8487 122.896 97.6542 122.361 100.375 121.548C100.382 121.548 100.39 121.542 100.397 121.542C102.115 121.025 103.795 120.397 105.422 119.662C105.429 119.655 105.443 119.655 105.451 119.648C105.817 119.485 106.17 119.309 106.529 119.139L106.701 119.058C106.989 118.915 107.277 118.773 107.564 118.624C108.283 118.25 108.988 117.857 109.685 117.436C109.879 117.327 110.066 117.212 110.26 117.09C110.533 116.92 110.806 116.744 111.072 116.56C110.404 116.153 109.707 115.767 108.988 115.4Z" fill="#3F3D56"/>
<path id="Vector_13" d="M73.423 118.406L72.2369 113.351H69.1383C69.1071 113.351 69.0759 113.353 69.045 113.357H69.0376C67.9241 113.446 66.8517 113.796 65.9177 114.375C65.2841 114.757 64.7208 115.234 64.2499 115.787C65.17 116.445 66.1262 117.056 67.1111 117.64L67.1543 117.66C67.4344 117.823 67.7223 117.986 68.0098 118.142C68.5273 118.434 69.0594 118.712 69.5912 118.976L69.9293 119.139C70.7057 119.519 71.4966 119.879 72.3089 120.212C72.4742 120.279 72.654 120.347 72.8193 120.415C72.8337 120.422 72.8407 120.422 72.8551 120.429C73.2363 120.578 73.6172 120.721 74.0054 120.856L73.423 118.406Z" fill="#3F3D56"/>
<path id="Vector_14" d="M87.6759 101.288C95.2136 101.288 101.324 95.5195 101.324 88.4041C101.324 81.2888 95.2136 75.5207 87.6759 75.5207C80.1381 75.5207 74.0276 81.2888 74.0276 88.4041C74.0276 95.5195 80.1381 101.288 87.6759 101.288Z" fill="#FFB8B8"/>
<path id="Vector_15" d="M78.5126 82.1289C79.9254 83.7072 82.3164 84.1525 84.522 84.3351C89.6787 84.604 94.85 84.2054 99.8922 83.1504C100.205 86.0089 99.3528 89.091 101.136 91.4424C101.972 88.5957 102.459 85.6676 102.585 82.7159C102.718 81.4495 102.543 80.1711 102.073 78.9783C101.822 78.3806 101.398 77.8614 100.849 77.4798C100.301 77.0981 99.6503 76.8694 98.9711 76.8195C99.9879 76.0913 101.179 75.6107 102.439 75.4199L98.1055 73.3641L99.2184 72.2856L91.3726 71.8324L93.645 70.4697C90.2249 70.026 86.7648 69.9229 83.3218 70.1621C81.7128 70.1627 80.1344 70.5769 78.7559 71.3601C77.4605 72.2345 76.712 73.9725 77.5162 75.2564C76.5094 75.4124 75.5614 75.8085 74.7621 76.4072C73.9629 77.0058 73.3388 77.7872 72.9489 78.6773C72.4559 80.092 72.3369 81.5991 72.6022 83.0671C72.8978 85.4226 73.4777 87.7384 74.3306 89.9695L78.5126 82.1289Z" fill="#2F2E41"/>
<path id="Vector_16" d="M126.054 74.4381C124.139 69.2452 121.048 64.509 116.994 60.56C112.941 56.6109 108.024 53.5439 102.586 51.573C97.1483 49.602 91.3204 48.7745 85.5089 49.1482C79.6974 49.5219 74.0422 51.0877 68.9376 53.7364C63.8331 56.3852 59.402 60.0532 55.9535 64.4846C52.5049 68.916 50.1219 74.0042 48.9706 79.3943C47.8193 84.7844 47.9274 90.3467 49.2874 95.6933C50.6473 101.04 53.2265 106.042 56.8449 110.351C57.2043 110.779 57.5782 111.206 57.9594 111.62C57.9882 111.647 58.0096 111.674 58.0384 111.702C58.9755 112.721 59.9714 113.69 61.0217 114.606C61.2952 114.844 61.5827 115.088 61.8702 115.319C62.4164 115.78 62.9773 116.221 63.5597 116.642C63.7896 116.812 64.0125 116.981 64.2498 117.144C65.1699 117.802 66.1261 118.413 67.1111 118.997L67.1542 119.017C67.4344 119.18 67.7222 119.343 68.0097 119.499C68.5272 119.791 69.0593 120.069 69.5911 120.334L69.9292 120.497C70.7056 120.877 71.4965 121.236 72.3088 121.569C72.4741 121.637 72.6539 121.705 72.8192 121.772C72.8336 121.779 72.8406 121.779 72.855 121.786C73.2362 121.935 73.6171 122.078 74.0054 122.214C75.2806 122.673 76.5813 123.067 77.9018 123.394C81.2719 124.242 84.7448 124.671 88.2326 124.67C89.5051 124.67 90.7632 124.616 92.0069 124.501C94.8487 124.253 97.6541 123.718 100.375 122.906C100.382 122.906 100.39 122.899 100.397 122.899C102.115 122.382 103.794 121.754 105.422 121.019C105.429 121.012 105.443 121.012 105.451 121.006C105.817 120.843 106.17 120.666 106.529 120.497L106.701 120.415C106.989 120.273 107.277 120.13 107.564 119.981C108.283 119.608 108.988 119.214 109.685 118.793C109.879 118.685 110.066 118.569 110.26 118.447C110.533 118.277 110.806 118.101 111.072 117.918C111.425 117.687 111.777 117.45 112.122 117.205C112.23 117.131 112.345 117.056 112.453 116.975C119.188 112.149 124.132 105.434 126.575 97.7925C129.019 90.1512 128.836 81.9757 126.054 74.4382V74.4381ZM111.13 115.325C110.893 115.502 110.648 115.672 110.404 115.828C110.166 115.997 109.929 116.16 109.685 116.309C109.476 116.452 109.268 116.588 109.052 116.717L108.988 116.757C108.829 116.859 108.671 116.954 108.513 117.049C107.916 117.402 107.312 117.741 106.701 118.067L106.507 118.169C106.234 118.311 105.961 118.447 105.688 118.583C105.652 118.603 105.609 118.617 105.573 118.637L105.53 118.658C105.185 118.827 104.832 118.99 104.48 119.146C103.121 119.764 101.721 120.299 100.289 120.748C100.102 120.809 99.915 120.87 99.7282 120.924C97.1527 121.697 94.4967 122.207 91.8058 122.444C90.6267 122.546 89.4332 122.6 88.2326 122.6C84.9338 122.607 81.6486 122.201 78.4628 121.392C76.8278 120.99 75.2253 120.477 73.6677 119.859C73.5883 119.825 73.502 119.798 73.423 119.764C73.337 119.73 73.2577 119.703 73.1787 119.669C73.0923 119.635 73.0133 119.601 72.927 119.56C72.2512 119.282 71.5825 118.976 70.9286 118.658L70.6123 118.501C69.814 118.108 69.0305 117.687 68.2684 117.239C68.0455 117.11 67.8156 116.975 67.5997 116.832C67.5425 116.798 67.492 116.764 67.4344 116.73C66.924 116.411 66.4136 116.079 65.9176 115.733C65.5799 115.495 65.2419 115.258 64.9112 115.013C64.3576 114.62 63.8254 114.199 63.308 113.765C63.0349 113.547 62.7688 113.31 62.5102 113.086C61.4908 112.198 60.5259 111.255 59.6201 110.263C59.3182 109.937 59.0234 109.611 58.7429 109.272C58.6791 109.205 58.6191 109.135 58.5631 109.062C53.8922 103.498 51.0826 96.7466 50.4928 89.6693C49.903 82.5919 51.5597 75.5091 55.2515 69.3241C58.9434 63.1391 64.5031 58.1323 71.2216 54.9421C77.9402 51.7519 85.5131 50.523 92.9745 51.4121C100.436 52.3012 107.448 55.268 113.116 59.9341C118.784 64.6002 122.851 70.7542 124.799 77.6112C126.747 84.4682 126.487 91.7174 124.052 98.4344C121.618 105.151 117.119 111.032 111.13 115.325L111.13 115.325Z" fill="#3F3D56"/>
<path id="Vector_17" d="M88.4589 365.631C97.1249 365.631 104.15 358.999 104.15 350.818C104.15 342.638 97.1249 336.006 88.4589 336.006C79.7928 336.006 72.7675 342.638 72.7675 350.818C72.7675 358.999 79.7928 365.631 88.4589 365.631Z" fill="#2F2E41"/>
<g id="icon2">
<path id="Vector_18" d="M126.055 204.47C124.14 199.277 121.048 194.541 116.995 190.592C112.941 186.642 108.024 183.576 102.587 181.605C97.1487 179.634 91.3208 178.806 85.5093 179.18C79.6978 179.553 74.0425 181.119 68.938 183.768C63.8334 186.417 59.4024 190.085 55.9538 194.516C52.5053 198.948 50.1223 204.036 48.971 209.426C47.8197 214.816 47.9278 220.378 49.2877 225.725C50.6477 231.071 53.2268 236.074 56.8452 240.383C57.2046 240.81 57.5785 241.238 57.9594 241.652C57.9881 241.679 58.0096 241.706 58.0383 241.733C58.9757 242.752 59.9717 243.722 61.0221 244.638C61.2952 244.875 61.5827 245.119 61.8702 245.35C62.4167 245.812 62.9773 246.253 63.5597 246.674C64.6967 247.52 65.8823 248.306 67.1111 249.028L67.1542 249.049C67.9521 249.517 68.7644 249.951 69.5914 250.365L69.9292 250.528C70.7056 250.908 71.4965 251.268 72.3088 251.6C72.4741 251.668 72.6539 251.736 72.8192 251.804C72.8336 251.811 72.8409 251.811 72.8553 251.818C74.4967 252.462 76.1829 252.999 77.9021 253.426C81.2721 254.274 84.745 254.703 88.2326 254.702C89.5051 254.702 90.7632 254.647 92.0069 254.532C94.8487 254.284 97.6541 253.75 100.375 252.937C100.382 252.937 100.389 252.93 100.397 252.93C102.115 252.414 103.794 251.786 105.422 251.051C105.429 251.044 105.444 251.044 105.451 251.037C105.817 250.874 106.17 250.698 106.529 250.528L106.702 250.447C106.989 250.304 107.277 250.162 107.564 250.012C108.283 249.639 108.988 249.245 109.685 248.825C109.879 248.716 110.066 248.601 110.26 248.479C110.893 248.085 111.518 247.664 112.122 247.237C112.23 247.162 112.345 247.087 112.453 247.006C119.188 242.18 124.132 235.465 126.575 227.824C129.018 220.183 128.836 212.007 126.055 204.47V204.47Z" fill="white"/>
<path id="Path 969" d="M103.121 222.159C104.16 222.16 105.181 222.414 106.085 222.898C106.988 223.382 107.743 224.079 108.275 224.921C108.808 225.763 109.1 226.722 109.123 227.702C109.145 228.682 108.898 229.652 108.405 230.515C108.925 229.9 109.304 229.19 109.518 228.43C109.731 227.669 109.774 226.875 109.645 226.098C109.515 225.321 109.216 224.578 108.765 223.916C108.314 223.254 107.723 222.688 107.027 222.254C106.332 221.82 105.549 221.528 104.728 221.395C103.906 221.263 103.064 221.293 102.256 221.485C101.448 221.676 100.691 222.025 100.033 222.508C99.3749 222.991 98.8309 223.598 98.4354 224.29C98.9965 223.625 99.7093 223.088 100.521 222.719C101.332 222.35 102.221 222.159 103.122 222.159L103.121 222.159Z" fill="#2F2E41"/>
<path id="Path 975" d="M80.3705 203.397V214.119H83.0003L86.3469 210.734L85.899 214.119H97.5238L96.8049 210.734L98.2427 214.119H100.096V203.397H80.3705Z" fill="#2F2E41"/>
<path id="Path 970" d="M76.3943 200.686C79.4324 197.461 83.6792 195.476 88.2383 195.15C92.7975 194.825 97.3123 196.184 100.83 198.941C100.686 198.811 100.542 198.681 100.394 198.555C96.9106 195.61 92.3307 194.091 87.6614 194.333C82.9922 194.576 78.616 196.559 75.4957 199.847C72.3755 203.135 70.7666 207.458 71.0231 211.865C71.2796 216.273 73.3805 220.404 76.8636 223.349C76.897 223.378 76.9306 223.406 76.9643 223.434C77.1138 223.559 77.2677 223.678 77.4208 223.798C74.1082 220.824 72.1496 216.75 71.9582 212.438C71.7668 208.126 73.3576 203.912 76.3949 200.686L76.3943 200.686Z" fill="#2F2E41"/>
<path id="Vector_19" d="M73.6459 249.09C73.6459 249.592 73.6318 250.074 73.6101 250.529C73.603 250.8 73.5887 251.065 73.5743 251.316C73.5599 251.309 73.5525 251.309 73.5381 251.302C73.3728 251.234 73.193 251.166 73.0277 251.099C72.2154 250.766 71.4245 250.406 70.6481 250.026L70.3104 249.864C69.4834 249.45 68.6711 249.015 67.8732 248.547C67.8946 248.309 67.9308 248.072 67.9665 247.834C68.0455 247.312 68.1104 246.782 68.1536 246.26C68.4363 242.589 67.7315 238.91 66.1047 235.565V235.558C65.9607 235.287 65.8747 235.137 65.8747 235.137C65.8747 235.137 67.9665 233.441 70.9499 235.137C71.1405 235.243 71.3088 235.381 71.4463 235.544C73.2436 237.546 73.7322 244.278 73.6459 249.09Z" fill="#2F2E41"/>
<path id="Vector_20" d="M126.055 205.325C124.14 200.132 121.048 195.396 116.995 191.447C112.941 187.498 108.024 184.431 102.587 182.46C97.1487 180.489 91.3208 179.662 85.5093 180.035C79.6978 180.409 74.0425 181.975 68.938 184.623C63.8334 187.272 59.4024 190.94 55.9538 195.372C52.5053 199.803 50.1223 204.891 48.971 210.281C47.8197 215.671 47.9278 221.234 49.2877 226.58C50.6477 231.927 53.2268 236.929 56.8452 241.238C57.2046 241.666 57.5785 242.093 57.9594 242.507C57.9881 242.534 58.0096 242.561 58.0383 242.589C58.9757 243.608 59.9717 244.577 61.0221 245.493C61.2952 245.731 61.5827 245.975 61.8702 246.206C62.4167 246.667 62.9773 247.108 63.5597 247.529C64.6967 248.375 65.8823 249.161 67.1111 249.884L67.1542 249.904C67.9521 250.372 68.7644 250.807 69.5914 251.221L69.9292 251.384C70.7056 251.764 71.4965 252.123 72.3088 252.456C72.4741 252.524 72.6539 252.592 72.8192 252.659C72.8336 252.666 72.8409 252.666 72.8553 252.673C74.4967 253.317 76.1829 253.855 77.9021 254.281C81.2721 255.129 84.745 255.558 88.2326 255.557C89.5051 255.557 90.7632 255.503 92.0069 255.387C94.8487 255.14 97.6541 254.605 100.375 253.793C100.382 253.793 100.389 253.786 100.397 253.786C102.115 253.269 103.794 252.641 105.422 251.906C105.429 251.899 105.444 251.899 105.451 251.893C105.817 251.73 106.17 251.553 106.529 251.384L106.702 251.302C106.989 251.16 107.277 251.017 107.564 250.868C108.283 250.495 108.988 250.101 109.685 249.68C109.879 249.572 110.066 249.456 110.26 249.334C110.893 248.94 111.518 248.52 112.122 248.092C112.23 248.018 112.345 247.943 112.453 247.862C119.188 243.036 124.132 236.321 126.575 228.679C129.018 221.038 128.836 212.863 126.055 205.325V205.325ZM111.13 246.212C110.893 246.389 110.648 246.559 110.404 246.715C110.167 246.884 109.929 247.047 109.685 247.196C109.477 247.339 109.268 247.475 109.052 247.604C108.873 247.719 108.693 247.828 108.513 247.936C107.917 248.289 107.313 248.628 106.702 248.954L106.507 249.056C106.234 249.198 105.961 249.334 105.688 249.47C105.652 249.49 105.609 249.504 105.573 249.524L105.53 249.544C105.185 249.714 104.833 249.877 104.48 250.033C103.121 250.651 101.721 251.186 100.289 251.635C100.102 251.696 99.9149 251.757 99.7282 251.811C97.1527 252.584 94.4966 253.094 91.8057 253.331C90.6266 253.433 89.4331 253.487 88.2326 253.487C84.9338 253.494 81.6485 253.088 78.4627 252.279C76.8277 251.877 75.2253 251.364 73.6676 250.746C73.5023 250.685 73.337 250.617 73.1786 250.556C73.0926 250.522 73.0133 250.488 72.927 250.447C72.2512 250.169 71.5829 249.863 70.9286 249.544L70.6123 249.388C69.8144 248.995 69.0305 248.574 68.2684 248.126C67.9883 247.963 67.7078 247.794 67.4347 247.617C66.5719 247.081 65.7308 246.504 64.9112 245.9C64.3576 245.507 63.8258 245.086 63.308 244.652C63.0349 244.434 62.7688 244.197 62.5101 243.973C61.4908 243.084 60.5259 242.142 59.6201 241.15C59.3182 240.824 59.0234 240.498 58.7429 240.159C58.6791 240.092 58.6191 240.022 58.5631 239.949C53.8922 234.385 51.0826 227.634 50.4928 220.556C49.903 213.479 51.5596 206.396 55.2515 200.211C58.9433 194.026 64.5031 189.019 71.2216 185.829C77.9402 182.639 85.5131 181.41 92.9745 182.299C100.436 183.188 107.448 186.155 113.116 190.821C118.784 195.487 122.851 201.641 124.799 208.498C126.747 215.355 126.487 222.604 124.052 229.321C121.618 236.038 117.119 241.919 111.13 246.212V246.212Z" fill="#3F3D56"/>
<path id="Vector_21" d="M106.292 248.167C106.263 248.927 106.22 249.721 106.17 250.529V250.535C106.163 250.542 106.148 250.542 106.141 250.549C104.513 251.284 102.834 251.912 101.115 252.429C101.108 252.429 101.101 252.435 101.094 252.435L101.015 250.529L101.008 250.277L100.627 240.994C100.617 240.784 100.652 240.574 100.73 240.377C100.808 240.18 100.927 240 101.081 239.847C101.235 239.695 101.42 239.574 101.625 239.491C101.83 239.408 102.05 239.365 102.273 239.365H105.918C106.098 239.365 106.227 239.711 106.313 240.336V240.342C106.49 242.948 106.483 245.562 106.292 248.167V248.167Z" fill="#2F2E41"/>
<path id="Ellipse 191" d="M78.5776 216.091C79.0727 216.091 79.4741 215.397 79.4741 214.54C79.4741 213.683 79.0727 212.988 78.5776 212.988C78.0825 212.988 77.6811 213.683 77.6811 214.54C77.6811 215.397 78.0825 216.091 78.5776 216.091Z" fill="#A0616A"/>
<path id="Ellipse 192" d="M101.589 216.091C102.084 216.091 102.486 215.397 102.486 214.54C102.486 213.683 102.084 212.988 101.589 212.988C101.094 212.988 100.693 213.683 100.693 214.54C100.693 215.397 101.094 216.091 101.589 216.091Z" fill="#A0616A"/>
<path id="Vector_22" d="M112.841 246.735C112.237 247.163 111.612 247.583 110.979 247.977C110.785 248.099 110.598 248.214 110.404 248.323C109.707 248.744 109.002 249.137 108.283 249.511C107.996 249.66 107.708 249.802 107.421 249.945V242.466C107.421 242.466 108.571 243.335 110.404 244.781C110.634 244.964 110.871 245.154 111.123 245.357C111.655 245.778 112.23 246.24 112.841 246.735Z" fill="#6C63FF"/>
<path id="Ellipse 188" d="M101.449 233.335C104.764 233.335 107.451 230.798 107.451 227.669C107.451 224.54 104.764 222.003 101.449 222.003C98.1341 222.003 95.4468 224.54 95.4468 227.669C95.4468 230.798 98.1341 233.335 101.449 233.335Z" fill="#2F2E41"/>
<path id="Ellipse 189" d="M90.2326 227.657C99.9704 227.657 107.865 220.205 107.865 211.013C107.865 201.821 99.9704 194.369 90.2326 194.369C80.4947 194.369 72.6006 201.821 72.6006 211.013C72.6006 220.205 80.4947 227.657 90.2326 227.657Z" fill="#2F2E41"/>
<path id="Ellipse 190" d="M90.083 227.516C96.3547 227.516 101.439 222.717 101.439 216.796C101.439 210.876 96.3547 206.077 90.083 206.077C83.8113 206.077 78.7271 210.876 78.7271 216.796C78.7271 222.717 83.8113 227.516 90.083 227.516Z" fill="#A0616A"/>
<path id="Vector_23" d="M110.404 244.726V248.323C109.707 248.744 109.002 249.137 108.283 249.511C107.996 249.66 107.708 249.802 107.421 249.945L107.248 250.026C106.888 250.196 106.536 250.372 106.17 250.535C106.163 250.542 106.148 250.542 106.141 250.549C104.513 251.284 102.834 251.912 101.115 252.429C101.108 252.429 101.101 252.436 101.094 252.436C98.373 253.248 95.5676 253.783 92.7258 254.03C91.4821 254.146 90.224 254.2 88.9515 254.2C85.4639 254.201 81.991 253.772 78.621 252.924C76.9018 252.497 75.2156 251.96 73.5743 251.316C73.5599 251.309 73.5525 251.309 73.5381 251.302C73.3728 251.234 73.193 251.166 73.0277 251.099C72.2154 250.766 71.4245 250.406 70.6481 250.026L70.3104 249.864C69.4834 249.45 68.6711 249.015 67.8732 248.547L67.83 248.527C66.6012 247.804 65.4157 247.018 64.2786 246.172C63.6963 245.751 63.1357 245.31 62.5891 244.848C62.3016 244.618 62.0141 244.373 61.741 244.136C60.6907 243.22 59.6945 242.251 58.7572 241.231C58.8815 240.524 59.0643 239.828 59.3038 239.148L59.3108 239.141C59.3538 239.025 59.4042 238.912 59.4618 238.802C59.5014 238.704 59.547 238.609 59.5983 238.517C60.8852 236.243 63.2146 235.68 66.1047 235.558C67.7366 235.49 69.5409 235.565 71.4463 235.544C72.4527 235.538 73.4949 235.504 74.5375 235.416C81.1155 234.852 79.9223 231.188 80.2169 229.213C80.5117 227.299 82.3378 228.955 82.4599 229.064L82.467 229.07C86.1894 230.715 90.3079 231.396 94.401 231.045C95.1055 230.964 95.81 230.916 96.5145 230.896C98.3693 230.875 97.9667 231.378 97.3271 231.792C97.0166 231.985 96.6923 232.157 96.3566 232.307C96.3566 232.307 96.0617 234.004 95.7598 236.542C95.4723 238.972 100.404 240.112 100.814 240.2C100.822 240.205 100.832 240.208 100.842 240.207C102.643 239.766 104.54 239.813 106.314 240.342H106.321C107.334 240.694 108.239 241.279 108.952 242.045C109.665 242.811 110.164 243.732 110.404 244.726V244.726Z" fill="#6C63FF"/>
<path id="Vector_24" d="M155.235 151.505C141.29 140.397 124.225 133.355 106.117 131.235C88.0095 129.116 69.6393 132.01 53.2421 139.566C36.845 147.122 23.128 159.014 13.7602 173.795C4.39233 188.576 -0.222374 205.608 0.477599 222.82C1.17757 240.031 7.16203 256.68 17.7028 270.739C28.2435 284.799 42.886 295.663 59.8486 302.01C76.8111 308.357 95.3623 309.913 113.245 306.489C131.127 303.066 147.57 294.809 160.572 282.725L276.028 374.687C277.786 376.082 280.058 376.762 282.346 376.578C284.633 376.394 286.751 375.361 288.233 373.706C289.716 372.051 290.442 369.908 290.254 367.748C290.066 365.588 288.978 363.586 287.228 362.182L287.216 362.172L171.759 270.209C185.172 252.038 190.912 229.794 187.855 207.836C184.799 185.878 173.166 165.789 155.235 151.505V151.505ZM147.792 261.354C138.798 271.416 126.844 278.735 113.443 282.384C100.042 286.034 85.7961 285.85 72.5057 281.857C59.2154 277.863 47.4781 270.239 38.778 259.948C30.0779 249.658 24.8058 237.163 23.6284 224.044C22.451 210.925 25.4211 197.772 32.1633 186.246C38.9054 174.721 49.1167 165.341 61.5059 159.294C73.8951 153.247 87.9057 150.803 101.766 152.273C115.626 153.742 128.714 159.058 139.374 167.549V167.549C153.668 178.934 162.585 195.213 164.164 212.805C165.743 230.397 159.854 247.861 147.792 261.354V261.354Z" fill="#3F3D56"/>
<path id="Vector_25" opacity="0.3" d="M48.4187 269.301C34.8903 258.524 26.1499 243.339 23.933 226.761C21.7162 210.183 26.185 193.424 36.4522 179.812C35.1039 181.094 33.8004 182.436 32.5417 183.839C26.5696 190.52 22.0499 198.247 19.2409 206.577C16.4319 214.907 15.3884 223.677 16.1702 232.388C16.952 241.098 19.5436 249.578 23.7972 257.344C28.0507 265.109 33.8828 272.007 40.9606 277.645C48.0384 283.282 56.2231 287.548 65.0476 290.2C73.872 292.852 83.1634 293.837 92.3911 293.099C101.619 292.361 110.602 289.914 118.828 285.899C127.054 281.884 134.362 276.379 140.334 269.697C141.59 268.293 142.773 266.854 143.882 265.381C131.395 277.225 114.646 284.203 96.9608 284.929C79.2758 285.655 61.9483 280.077 48.4187 269.301Z" fill="black"/>
</g>
<g id="Group 1_2">
<path id="Vector_26" d="M76.2109 342.832C78.7466 340.439 79.2605 337.043 77.3587 335.248C75.457 333.453 71.8598 333.938 69.3241 336.331C66.7885 338.725 66.2746 342.12 68.1763 343.916C70.078 345.711 73.6753 345.226 76.2109 342.832Z" fill="#2F2E41"/>
<path id="Vector_27" d="M104.813 338.128C105.87 335.794 104.053 332.823 100.755 331.493C97.4576 330.164 93.9278 330.978 92.8713 333.313C91.8148 335.648 93.6317 338.618 96.9294 339.948C100.227 341.278 103.757 340.463 104.813 338.128Z" fill="#2F2E41"/>
<path id="Vector_28" d="M107.228 379.55L105.379 376.804C104.595 375.15 103.148 373.856 101.355 373.207C99.5626 372.558 97.5706 372.606 95.8153 373.34C94.0601 374.075 92.6847 375.436 91.9905 377.126C91.2964 378.816 91.3399 380.696 92.1116 382.356L92.6373 384.135L93.2356 386.154C95.6577 385.866 98.0475 385.373 100.377 384.683C100.384 384.682 100.39 384.679 100.395 384.674C102.117 384.16 103.797 383.531 105.425 382.792C105.434 382.784 105.443 382.784 105.452 382.775C105.814 382.613 106.168 382.441 106.53 382.27C106.589 382.245 106.647 382.217 106.702 382.185C106.992 382.048 107.282 381.902 107.563 381.757C107.853 381.612 108.134 381.458 108.406 381.295L107.228 379.55Z" fill="#CACACA"/>
<path id="Vector_29" d="M88.9565 366.925C96.3113 366.925 102.274 361.297 102.274 354.354C102.274 347.412 96.3113 341.784 88.9565 341.784C81.6017 341.784 75.6394 347.412 75.6394 354.354C75.6394 361.297 81.6017 366.925 88.9565 366.925Z" fill="#FFB6B6"/>
<path id="Vector_30" d="M108.189 379.011C106.72 376.705 104.896 374.618 102.778 372.817C101.327 371.594 99.4496 370.917 97.5039 370.918H78.7444C77.6634 370.918 76.5939 371.127 75.6018 371.532C74.6097 371.937 73.7162 372.53 72.9764 373.274C72.2367 374.018 71.6664 374.897 71.3008 375.858C70.9352 376.818 70.7821 377.839 70.851 378.857C70.8919 379.431 71.0015 380 71.1775 380.551C71.3113 380.95 71.4779 381.339 71.6758 381.714L72.6002 383.459C72.6727 383.485 72.7453 383.519 72.8174 383.545C72.8356 383.554 72.8449 383.553 72.8537 383.562C73.2343 383.707 73.6152 383.853 74.0046 383.99C75.2799 384.45 76.5809 384.844 77.9018 385.17C80.028 385.709 82.1984 386.078 84.3902 386.274C85.6681 386.385 86.9461 386.445 88.2329 386.445C89.5108 386.445 90.7613 386.385 92.0119 386.274C92.4199 386.24 92.8274 386.197 93.2354 386.154C95.6575 385.865 98.0474 385.373 100.377 384.683C100.383 384.682 100.39 384.679 100.395 384.674C102.116 384.16 103.797 383.531 105.425 382.792C105.433 382.784 105.442 382.784 105.452 382.775C105.814 382.612 106.168 382.441 106.53 382.27C106.589 382.245 106.647 382.217 106.702 382.185C106.992 382.048 107.282 381.902 107.563 381.757C107.853 381.612 108.134 381.458 108.406 381.295C108.696 381.15 108.968 380.987 109.249 380.825C108.905 380.183 108.551 379.584 108.189 379.011Z" fill="#CACACA"/>
<path id="Vector_31" d="M82.1428 373.211C80.4068 372.444 78.4199 372.358 76.6164 372.97C74.813 373.583 73.3397 374.844 72.5188 376.479L70.851 378.857L70.0536 379.995L68.8394 381.723C69.0929 381.851 69.3376 381.979 69.5916 382.108L69.9266 382.27C70.7063 382.647 71.4944 383.006 72.3104 383.34C72.4006 383.382 72.5007 383.417 72.6002 383.459C72.6728 383.485 72.7453 383.519 72.8175 383.545C72.8356 383.553 72.8449 383.553 72.8537 383.562C73.2343 383.707 73.6153 383.853 74.0047 383.99C75.2799 384.45 76.5809 384.844 77.9018 385.17C80.028 385.709 82.1985 386.078 84.3902 386.274L85.0248 384.246L85.6412 382.313C86.4536 380.668 86.5416 378.786 85.8857 377.079C85.2299 375.373 83.8838 373.982 82.1428 373.211V373.211Z" fill="#CACACA"/>
<path id="Vector_32" d="M74.9634 346.447C78.0065 348.427 81.6185 349.481 85.3144 349.467C83.996 350.33 82.4952 350.913 80.9152 351.176C85.8292 352.171 90.9078 352.197 95.8334 351.255C96.9282 351.089 97.9846 350.746 98.9563 350.242C99.4405 349.987 99.8623 349.638 100.194 349.219C100.527 348.8 100.761 348.319 100.884 347.809C101.211 346.044 99.7542 344.44 98.2401 343.359C95.9219 341.73 93.249 340.607 90.4148 340.073C87.5805 339.538 84.6559 339.605 81.8523 340.268C79.9843 340.623 78.2844 341.53 76.9988 342.857C76.3767 343.533 76.0011 344.379 75.9276 345.272C75.8541 346.164 76.0864 347.055 76.5904 347.813L74.9634 346.447Z" fill="#2F2E41"/>
<path id="Vector_33" d="M387.995 378.125C388.897 377.086 389.547 375.873 389.898 374.571C390.25 373.269 390.294 371.91 390.029 370.59C389.764 369.27 389.195 368.021 388.364 366.931C387.532 365.841 386.457 364.936 385.214 364.28L364.169 282.969L348.817 287.595L371.542 368.352C370.514 370.395 370.315 372.723 370.984 374.895C371.652 377.067 373.142 378.932 375.17 380.137C377.198 381.342 379.624 381.802 381.987 381.432C384.351 381.061 386.489 379.884 387.995 378.125H387.995Z" fill="#FFB6B6"/>
<path id="Vector_34" d="M377.118 326.115L365.899 335.251L350.202 348.024L343.27 314.541L342.545 311.059L341.974 308.296L357.878 282.145L371.137 282.862L372.043 282.914L372.061 283.103L372.27 284.856L374.988 307.936L375.052 308.493L377.118 326.115Z" fill="#3F3D56"/>
<path id="Vector_35" d="M303.785 553.391L292.676 553.391L287.389 512.937L303.788 512.938L303.785 553.391Z" fill="#FFB6B6"/>
<path id="Vector_36" d="M306.619 563.558L270.794 563.556V563.129C270.795 559.638 272.264 556.29 274.879 553.822C277.494 551.353 281.04 549.966 284.738 549.966H284.739L306.62 549.967L306.619 563.558Z" fill="#2F2E41"/>
<path id="Vector_37" d="M419.785 554.247L408.676 554.246L403.389 513.793L419.788 513.793L419.785 554.247Z" fill="#FFB6B6"/>
<path id="Vector_38" d="M422.619 564.413L386.794 564.412V563.984C386.795 560.493 388.264 557.145 390.879 554.677C393.494 552.209 397.04 550.822 400.738 550.822H400.739L422.62 550.823L422.619 564.413Z" fill="#2F2E41"/>
<path id="Vector_39" d="M428.666 538.143L398.759 542.421L355.25 403.424L309.041 543.276L275.509 538.999L319.009 376.46V363.628L324.9 344.379L324.284 339.17L319.997 302.735L318.139 286.935L318.019 285.914C317.918 285.057 318.158 284.196 318.693 283.498C319.228 282.799 320.019 282.314 320.913 282.136V282.136L334.869 279.364H357.679L371.137 282.863L372.061 283.102L372.478 283.213L372.27 284.856L369.116 309.819L368.944 311.187L365.899 335.252L365.228 340.53C391.509 358.495 392.416 376.46 392.416 376.46L428.666 538.143Z" fill="#2F2E41"/>
<path id="Vector_40" d="M343.517 268.541C355.81 268.541 365.776 259.134 365.776 247.53C365.776 235.925 355.81 226.518 343.517 226.518C331.224 226.518 321.259 235.925 321.259 247.53C321.259 259.134 331.224 268.541 343.517 268.541Z" fill="#FFB6B6"/>
<path id="Vector_41" d="M366.896 335.702L322.864 341.137L323.687 347.075L367.718 341.639L366.896 335.702Z" fill="#3F3D56"/>
<path id="Vector_42" d="M263.803 342.927C264.224 343.184 264.623 343.472 264.996 343.789L308.547 333.309L311.518 323.391L327.96 325.667L324.508 343.707C324.229 345.165 323.457 346.497 322.307 347.505C321.158 348.513 319.693 349.142 318.133 349.297L267.282 354.352C266.453 355.999 265.113 357.369 263.439 358.28C261.765 359.19 259.838 359.598 257.912 359.449C255.987 359.3 254.155 358.602 252.661 357.446C251.166 356.291 250.08 354.733 249.546 352.98C249.013 351.228 249.057 349.363 249.673 347.635C250.289 345.907 251.448 344.396 252.996 343.305C254.543 342.214 256.406 341.593 258.337 341.526C260.267 341.458 262.174 341.947 263.803 342.927V342.927Z" fill="#FFB6B6"/>
<path id="Vector_43" d="M330.791 287.491L323.087 281.93C321.005 281.185 318.151 283.303 317.65 285.352L306.775 327.27L329.431 342.669L332.603 337.963L330.791 287.491Z" fill="#3F3D56"/>
<g id="Group" opacity="0.2">
<path id="Vector_44" opacity="0.2" d="M374.988 307.936C373.066 308.657 371.106 309.285 369.116 309.819C368.482 309.998 367.829 310.169 367.186 310.332C362.944 311.443 358.586 312.108 354.19 312.316C352.298 312.392 350.402 312.343 348.517 312.171C346.493 311.981 344.494 311.608 342.545 311.059C342.481 311.042 342.409 311.025 342.345 311.008C338.293 309.922 334.578 307.929 331.515 305.199C330.831 304.57 330.192 303.898 329.603 303.189C327.911 301.232 326.67 298.964 325.958 296.529C325.247 294.095 325.081 291.546 325.471 289.048C325.547 288.595 325.65 288.146 325.779 287.705C326.121 286.501 326.572 285.327 327.129 284.197C327.374 283.667 327.646 283.145 327.936 282.632L338.176 279.364H357.679L371.137 282.863L372.043 282.914L372.061 283.102L372.478 283.213L372.27 284.856L374.988 307.936Z" fill="black"/>
</g>
<path id="Vector_45" d="M326.461 230.135C322.299 229.653 317.731 229.994 314.486 232.502C311.242 235.01 310.194 240.225 313.266 242.92C315.986 245.306 320.238 244.745 323.881 245.423C327.019 246.087 329.83 247.726 331.865 250.077C333.899 252.427 335.04 255.354 335.104 258.389C335.049 267.093 326.2 273.684 324.611 282.258C323.526 288.109 326.14 294.267 330.66 298.4C335.18 302.533 341.393 304.767 347.653 305.372C353.913 305.977 360.243 305.053 366.327 303.535C372.436 302.01 378.451 299.847 383.577 296.359C388.703 292.871 392.905 287.954 394.551 282.195C396.197 276.435 395.015 269.832 390.774 265.41C385.917 260.347 377.838 258.606 373.637 253.044C368.928 246.81 370.67 237.931 366.859 231.172C364.314 226.659 359.496 223.581 354.36 221.96C349.224 220.338 343.74 220.018 338.326 219.861C335.481 219.779 332.549 219.751 329.898 220.73C327.247 221.71 324.917 223.941 324.78 226.625C324.642 229.309 326.461 230.135 326.461 230.135Z" fill="#2F2E41"/>
<path id="Vector_46" d="M534.844 564.759H189.562C189.322 564.759 189.091 564.669 188.922 564.508C188.752 564.348 188.656 564.13 188.656 563.903C188.656 563.677 188.752 563.459 188.922 563.298C189.091 563.138 189.322 563.048 189.562 563.048H534.844C535.084 563.048 535.314 563.138 535.484 563.298C535.654 563.459 535.75 563.677 535.75 563.903C535.75 564.13 535.654 564.348 535.484 564.508C535.314 564.669 535.084 564.759 534.844 564.759Z" fill="#CACACA"/>
<path id="Vector_47" d="M126.06 336.212C124.145 331.018 121.053 326.282 117 322.332C112.947 318.382 108.03 315.315 102.592 313.343C97.1535 311.372 91.3252 310.544 85.5133 310.918C79.7014 311.291 74.0457 312.857 68.9408 315.506C63.8358 318.155 59.4044 321.823 55.9557 326.255C52.507 330.687 50.124 335.775 48.9728 341.166C47.8217 346.556 47.9301 352.119 49.2905 357.466C50.6509 362.813 53.2306 367.815 56.8497 372.124C57.2028 372.552 57.5838 372.98 57.9644 373.391C57.9862 373.421 58.0104 373.449 58.0369 373.476C58.9754 374.495 59.9738 375.463 61.0274 376.376C61.2991 376.616 61.5801 376.864 61.8703 377.095C62.4137 377.557 62.9757 377.993 63.5647 378.412C63.7913 378.583 64.0178 378.754 64.2537 378.917C65.1688 379.576 66.1294 380.183 67.1083 380.773C67.125 380.773 67.1411 380.78 67.1534 380.79C67.4344 380.953 67.7247 381.115 68.0145 381.269C68.2862 381.423 68.5672 381.577 68.8393 381.723C69.0929 381.851 69.3376 381.979 69.5916 382.108L69.9266 382.27C70.7063 382.647 71.4944 383.006 72.3104 383.34C72.4006 383.382 72.5007 383.417 72.6002 383.459C72.6728 383.485 72.7453 383.519 72.8175 383.545C72.8356 383.553 72.8449 383.553 72.8537 383.562C73.2342 383.707 73.6153 383.853 74.0047 383.99C75.2799 384.45 76.5809 384.844 77.9018 385.17C80.028 385.709 82.1985 386.078 84.3902 386.274C85.6682 386.385 86.9461 386.445 88.233 386.445C89.5109 386.445 90.7614 386.385 92.0119 386.274C92.4199 386.24 92.8275 386.197 93.2355 386.154C95.6575 385.865 98.0474 385.373 100.377 384.683C100.384 384.682 100.39 384.679 100.395 384.674C102.116 384.16 103.797 383.531 105.425 382.792C105.434 382.784 105.442 382.784 105.452 382.775C105.814 382.612 106.168 382.441 106.53 382.27C106.589 382.245 106.647 382.217 106.702 382.185C106.992 382.048 107.282 381.902 107.563 381.757C107.853 381.611 108.134 381.458 108.406 381.295C108.696 381.15 108.968 380.987 109.249 380.825C109.394 380.739 109.539 380.653 109.684 380.568C109.883 380.457 110.064 380.345 110.264 380.217C110.536 380.055 110.808 379.875 111.07 379.695C111.424 379.464 111.777 379.225 112.122 378.977C112.238 378.905 112.35 378.828 112.457 378.746C119.187 373.916 124.127 367.202 126.57 359.562C129.013 351.923 128.834 343.75 126.06 336.212L126.06 336.212ZM111.134 377.095C110.898 377.274 110.653 377.445 110.409 377.599C110.164 377.771 109.929 377.933 109.684 378.087C109.475 378.224 109.267 378.361 109.05 378.489C109.03 378.505 109.009 378.52 108.986 378.532C108.832 378.635 108.669 378.729 108.515 378.823C108.406 378.883 108.297 378.951 108.189 379.011C107.871 379.199 107.554 379.379 107.228 379.55C107.056 379.653 106.874 379.747 106.702 379.841C106.639 379.875 106.575 379.909 106.512 379.943C106.231 380.089 105.959 380.217 105.687 380.354C105.651 380.38 105.606 380.388 105.579 380.414C105.562 380.414 105.546 380.42 105.533 380.431C105.189 380.602 104.835 380.765 104.482 380.919C103.121 381.537 101.72 382.071 100.286 382.518C100.105 382.578 99.9147 382.647 99.7332 382.698C97.422 383.39 95.0458 383.871 92.6372 384.135C92.3655 384.169 92.0845 384.195 91.8035 384.221C90.6256 384.323 89.4384 384.375 88.233 384.375C87.1634 384.375 86.0851 384.332 85.0248 384.246C82.8082 384.072 80.6125 383.711 78.4638 383.169C76.8282 382.766 75.2259 382.251 73.6698 381.629C73.5879 381.594 73.5065 381.569 73.4251 381.535C73.3344 381.5 73.2618 381.475 73.1804 381.44C73.0897 381.406 73.0171 381.372 72.9264 381.329C72.3374 381.09 71.7484 380.825 71.1776 380.551C71.0957 380.508 71.0143 380.474 70.9329 380.431L70.6156 380.277C70.4253 380.183 70.2351 380.089 70.0537 379.995C69.4465 379.687 68.8483 379.353 68.2686 379.011C68.0509 378.883 67.8155 378.746 67.5978 378.609L67.4345 378.506C66.9269 378.181 66.4198 377.856 65.9211 377.505C65.5857 377.266 65.2414 377.035 64.9153 376.787C64.3626 376.393 63.8276 375.974 63.3112 375.538C63.0391 375.324 62.7674 375.084 62.5139 374.862C61.4933 373.974 60.5281 373.032 59.623 372.039C59.3238 371.714 59.0247 371.389 58.7437 371.047C58.6804 370.978 58.626 370.91 58.5623 370.833C53.8902 365.268 51.0798 358.516 50.4894 351.438C49.899 344.36 51.5553 337.276 55.2473 331.09C58.9392 324.904 64.4994 319.896 71.2187 316.705C77.9379 313.514 85.5118 312.285 92.9743 313.174C100.437 314.063 107.45 317.029 113.119 321.696C118.787 326.363 122.856 332.517 124.804 339.375C126.752 346.233 126.492 353.483 124.058 360.201C121.623 366.919 117.124 372.8 111.134 377.095H111.134Z" fill="#3F3D56"/>
</g>
</g>
</svg>
