<svg width="798" height="562" viewBox="0 0 798 562" fill="none" xmlns="http://www.w3.org/2000/svg">
<g id="Group 1">
<path id="Vector" d="M424.5 562C218.222 562 51 545.658 51 525.5C51 505.342 218.222 489 424.5 489C630.778 489 798 505.342 798 525.5C798 545.658 630.778 562 424.5 562Z" fill="#3F3D56"/>
<path id="Vector_2" opacity="0.1" d="M535 548C437.246 548 358 535.912 358 521C358 506.088 437.246 494 535 494C632.754 494 712 506.088 712 521C712 535.912 632.754 548 535 548Z" fill="black"/>
<path id="Vector_3" opacity="0.1" d="M757.88 359.166C757.88 276.905 690.795 210.219 608.05 210.219C599.995 210.22 591.952 210.862 584 212.137C596.772 208.716 609.943 206.989 623.17 207C705.923 207 773 273.693 773 355.955C773 430.128 718.48 491.606 647.108 503C678.904 494.456 706.983 475.739 727.005 449.74C747.027 423.742 757.878 391.91 757.88 359.166V359.166Z" fill="black"/>
<g id="mega2">
<path id="Vector_4" d="M623.127 206C705.904 206 773 272.489 773 354.5C773 436.51 705.872 503 623.127 503C612.929 503.004 602.756 501.981 592.766 499.948C607.027 476.718 614.548 450.043 614.505 422.854C614.505 351.157 563.216 291.322 495 277.414C508.36 255.602 527.17 237.571 549.613 225.061C572.057 212.552 597.376 205.987 623.127 206V206Z" fill="#00B0FF"/>
<path id="Vector_5" d="M495.905 276C473.944 262.737 455.789 244.063 443.194 221.781C430.598 199.499 423.988 174.361 424 148.795C424 66.6215 490.931 0 573.504 0C656.077 0 723 66.6215 723 148.795C723.004 158.922 721.974 169.024 719.927 178.945C696.544 164.779 669.687 157.308 642.312 157.355C570.146 157.331 509.907 208.283 495.905 276Z" fill="#00B0FF"/>
</g>
<path id="Vector_6" opacity="0.1" d="M424.582 148.795C424.565 172.097 429.916 195.077 440.202 215.877C450.489 236.678 465.422 254.717 483.797 268.535C483.172 271.003 482.593 273.486 482.083 276C460.678 262.737 442.984 244.063 430.707 221.781C418.431 199.499 411.988 174.361 412 148.795C412 66.6215 477.235 0 557.717 0C559.824 0 561.916 0.0551723 564 0.14976C486.468 3.51552 424.582 68.7734 424.582 148.795Z" fill="black"/>
<path id="Vector_7" d="M488.523 343.099C490.922 344.344 493.202 345.811 495.335 347.482C497.479 349.167 499.12 351.424 500.077 354C501.403 351.202 502.125 348.16 503.01 345.188C504.704 339.797 506.704 334.51 509 329.354C505.219 327.888 501.942 325.332 499.572 322C494.916 326.69 490.175 331.576 487.871 337.764C487.475 338.835 486.319 339.978 486.047 340.916C485.683 342.311 487.514 342.532 488.523 343.099Z" fill="#FFBFC5"/>
<path id="Vector_8" d="M633 494.847C633 530.247 607.483 534 575.996 534C544.509 534 519 530.247 519 494.847C519 459.448 544.517 446 575.996 446C607.475 446 633 459.455 633 494.847Z" fill="#3F3D56"/>
<path id="Vector_9" d="M445.465 457.293C440.434 458.925 435.743 461.506 431.632 464.905C431.323 465.103 431.1 465.415 431.008 465.777C430.9 466.57 431.964 466.927 432.735 467.157C435.048 467.831 436.459 470.027 438.132 471.74C439.805 473.453 442.488 474.809 444.439 473.437C444.951 473.033 445.399 472.549 445.765 472.002L454 460.965C451.208 459.357 448.272 458.029 445.233 457" fill="#F1F1F1"/>
<path id="Vector_10" d="M430.468 459.385C429.387 460.507 428.946 462.128 427.865 463.282C427.155 463.977 426.343 464.553 425.459 464.989L419.23 468.496C418.264 469.082 417.244 469.571 416.185 469.954C415.013 470.295 413.82 470.556 412.614 470.733C410.886 471.075 409.197 471.597 407.574 472.292C406.355 472.806 404.992 473.687 405 475.035C405.053 475.698 405.321 476.324 405.761 476.812C408.213 479.977 412.561 480.709 416.489 481.107C424.986 482.026 433.682 482.712 441.988 480.662C443.611 480.357 445.145 479.677 446.473 478.675C448.978 476.547 449.518 472.674 448.544 469.486C448.279 468.261 447.572 467.183 446.564 466.47C445.247 465.69 443.61 466.057 442.095 465.94C440.499 465.709 438.954 465.2 437.527 464.435C436.575 463.999 435.486 463.43 435.242 462.276C434.999 461.123 436.285 460.125 436.004 459.159C435.471 456.984 431.458 458.348 430.468 459.385Z" fill="#575A89"/>
<path id="Vector_11" opacity="0.1" d="M430.468 459.385C429.387 460.507 428.946 462.128 427.865 463.282C427.155 463.977 426.343 464.553 425.459 464.989L419.23 468.496C418.264 469.082 417.244 469.571 416.185 469.954C415.013 470.295 413.82 470.556 412.614 470.733C410.886 471.075 409.197 471.597 407.574 472.292C406.355 472.806 404.992 473.687 405 475.035C405.053 475.698 405.321 476.324 405.761 476.812C408.213 479.977 412.561 480.709 416.489 481.107C424.986 482.026 433.682 482.712 441.988 480.662C443.611 480.357 445.145 479.677 446.473 478.675C448.978 476.547 449.518 472.674 448.544 469.486C448.279 468.261 447.572 467.183 446.564 466.47C445.247 465.69 443.61 466.057 442.095 465.94C440.499 465.709 438.954 465.2 437.527 464.435C436.575 463.999 435.486 463.43 435.242 462.276C434.999 461.123 436.285 460.125 436.004 459.159C435.471 456.984 431.458 458.348 430.468 459.385Z" fill="black"/>
<path id="Vector_12" d="M415.817 494.796L413.14 496.594C412.322 497.039 411.648 497.715 411.201 498.542C410.618 499.928 411.404 501.496 412.276 502.716C414.892 506.357 418.464 509.173 422.582 510.842C424.009 511.447 425.518 511.829 427.057 511.975C427.407 512.033 427.766 511.989 428.093 511.848C428.91 511.405 428.793 510.224 428.801 509.282C428.801 506.565 430.848 504.356 432.693 502.352C434.538 500.348 436.359 497.893 435.939 495.224C435.554 493.638 434.746 492.19 433.604 491.042C432.601 489.755 431.421 488.621 430.101 487.676C428.209 486.417 427.548 487.098 425.773 488.246C422.436 490.406 419.118 492.589 415.817 494.796Z" fill="#F1F1F1"/>
<path id="Vector_13" d="M424.271 507.958C423.55 508.142 422.796 508.152 422.071 507.986C421.346 507.821 420.67 507.484 420.097 507.004C418.956 506.035 418.033 504.831 417.389 503.471C416.741 502.268 416.179 501.02 415.708 499.735C415.152 498.227 414.643 496.562 413.331 495.648C411.789 494.538 409.521 494.976 407.931 496.046C406.342 497.117 405.139 498.704 403.773 500.079C400.556 503.331 396.321 505.386 391.97 506.731C387.619 508.075 383.106 508.747 378.64 509.615C377.743 509.736 376.876 510.019 376.078 510.451C374.273 511.568 373.664 514.062 374.173 516.141C374.682 518.22 376.017 519.939 377.475 521.502C378.69 522.961 380.196 524.141 381.895 524.965C383.328 525.494 384.837 525.784 386.362 525.825C393.761 526.331 401.194 525.741 408.425 524.074C411.079 523.339 413.781 522.793 416.51 522.44C418.168 522.292 419.85 522.339 421.509 522.221C424.822 521.99 428.063 521.126 431.059 519.673C431.788 519.401 432.401 518.882 432.795 518.204C433.013 517.582 433.058 516.912 432.926 516.266L431.823 506.465C431.723 505.613 431.445 504.55 430.604 504.417C429.763 504.284 429.231 505.12 428.729 505.761C427.756 506.94 426.424 507.757 424.943 508.086C423.461 508.414 421.914 508.234 420.544 507.575" fill="#575A89"/>
<path id="Vector_14" d="M488.875 383.288C484.04 382.73 478.43 382.635 475.155 386.323C473.149 388.587 472.542 391.755 471.85 394.719C470.766 399.706 469.001 404.513 466.609 408.997C465.071 411.781 463.204 414.383 461.997 417.339C460.79 420.295 460.337 423.629 459.63 426.845C456.798 439.456 449.88 450.717 440 458.797C441.745 463.648 446.794 466.423 451.706 467.665C452.891 468.067 454.164 468.108 455.372 467.783C456.286 467.379 457.099 466.765 457.747 465.991C460.042 463.453 462.18 460.773 464.149 457.963C471.228 448.293 478.406 438.426 482.265 427.018C483.617 423.008 484.97 418.369 488.775 416.663C490.942 415.704 493.425 416.003 495.754 416.411C500.958 417.311 506.079 418.655 511.064 420.429C516.382 422.324 522.47 424.651 527.335 421.758C530.248 420.02 531.946 416.694 532.615 413.314C533.284 409.933 532.946 406.442 532.615 403.014C532.583 401.469 532.221 399.951 531.554 398.564C530.881 397.526 530.017 396.632 529.01 395.93C524.664 392.563 519.83 389.91 514.684 388.068C509.773 386.291 504.485 385.709 499.358 384.821C495.879 384.202 492.385 383.691 488.875 383.288Z" fill="#575A89"/>
<path id="Vector_15" opacity="0.1" d="M488.875 383.288C484.04 382.73 478.43 382.635 475.155 386.323C473.149 388.587 472.542 391.755 471.85 394.719C470.766 399.706 469.001 404.513 466.609 408.997C465.071 411.781 463.204 414.383 461.997 417.339C460.79 420.295 460.337 423.629 459.63 426.845C456.798 439.456 449.88 450.717 440 458.797C441.745 463.648 446.794 466.423 451.706 467.665C452.891 468.067 454.164 468.108 455.372 467.783C456.286 467.379 457.099 466.765 457.747 465.991C460.042 463.453 462.18 460.773 464.149 457.963C471.228 448.293 478.406 438.426 482.265 427.018C483.617 423.008 484.97 418.369 488.775 416.663C490.942 415.704 493.425 416.003 495.754 416.411C500.958 417.311 506.079 418.655 511.064 420.429C516.382 422.324 522.47 424.651 527.335 421.758C530.248 420.02 531.946 416.694 532.615 413.314C533.284 409.933 532.946 406.442 532.615 403.014C532.583 401.469 532.221 399.951 531.554 398.564C530.881 397.526 530.017 396.632 529.01 395.93C524.664 392.563 519.83 389.91 514.684 388.068C509.773 386.291 504.485 385.709 499.358 384.821C495.879 384.202 492.385 383.691 488.875 383.288Z" fill="black"/>
<path id="Vector_16" d="M460.809 418.691C458.6 419.89 456.572 421.446 454.792 423.306C452.874 425.527 451.709 428.394 450.716 431.253C450.326 432.227 450.087 433.265 450.009 434.324C449.973 434.853 450.048 435.383 450.229 435.876C450.41 436.369 450.692 436.81 451.054 437.166C451.928 437.789 452.969 438.076 454.01 437.983C455.379 437.983 456.755 437.983 458.124 437.868C458.958 437.862 459.784 437.69 460.561 437.362C461.273 436.968 461.914 436.439 462.456 435.802C464.868 433.37 466.845 430.473 468.285 427.259C469.278 424.882 470.917 419.393 469.353 416.919C467.789 414.444 462.509 417.637 460.809 418.691Z" fill="#FFBFC5"/>
<path id="Vector_17" d="M543.916 418C536.531 420.364 528.671 420.616 520.954 421.333C507.973 422.539 495.15 425.058 482.683 428.848C480.129 429.636 477.52 430.487 475.465 432.181C473.796 433.714 472.382 435.501 471.277 437.475C469.249 440.543 467.414 443.732 465.781 447.024C464.377 450.002 463.306 453.122 462.005 456.139C457.622 466.247 450.692 475.062 441.882 481.736C440.296 482.957 438.48 484.28 438.067 486.242C437.88 487.508 438.087 488.8 438.662 489.945C440.566 494.349 444.516 497.556 448.664 500.006C450.441 501.061 452.408 502.125 453.28 504C459.578 501.416 464.266 495.901 468.16 490.355C472.055 484.808 475.521 478.829 480.518 474.228C482.715 472.195 485.213 470.43 486.95 467.988C489.592 464.27 490.305 459.18 493.859 456.312C497.412 453.445 502.584 453.815 507.176 454.264C530.706 456.543 554.415 456.279 577.887 453.476C582.765 452.901 587.778 452.16 592.006 449.663C596.234 447.166 599.525 442.502 598.93 437.656C598.367 433.119 594.568 429.526 590.324 427.753C586.081 425.981 581.401 425.658 576.84 425.146C565.49 423.901 554.655 421.853 543.916 418Z" fill="#575A89"/>
<path id="Vector_18" d="M611.696 427.55C611.111 423.715 609.598 420.085 608.645 416.321C608.169 413.952 607.565 411.609 606.836 409.303C606.836 409.233 606.78 409.17 606.755 409.107C606.514 409.088 606.28 409.017 606.069 408.898C605.859 408.78 605.678 408.618 605.538 408.423C605.407 408.088 605.371 407.724 605.434 407.37C605.462 406.996 605.462 406.621 605.434 406.247C603.874 403.68 602.168 401.201 600.326 398.821C597.123 394.334 594.305 389.564 591.518 384.802C589.228 380.873 586.938 376.991 585.049 372.889C583.624 369.817 582.43 366.603 580.861 363.632C575.256 352.945 565.232 345.064 554.438 339.406C544.077 333.976 532.876 330.322 521.986 326C521.709 326.273 521.455 326.567 521.226 326.88C515.341 334.777 514.708 345.15 512.282 354.643C511.305 358.477 510 362.296 510 366.241C510 372.072 512.842 377.494 515.669 382.625C518.319 387.458 521.05 392.291 524.565 396.558C526.23 398.585 528.064 400.487 529.737 402.491C536.607 410.749 540.57 420.91 544.43 430.882C546.656 436.657 550.307 441.773 552.757 447.462C553.702 449.647 554.246 451.996 555.431 454.071C556.616 456.145 558.674 457.953 561.092 458C561.8 457.979 562.502 457.87 563.182 457.678C571.933 455.47 579.26 449.82 586.53 444.523C587.835 443.58 589.14 442.653 590.533 441.805C591.927 440.956 593.336 440.178 594.761 439.447L598.012 437.695C601.551 435.793 605.106 433.884 608.797 432.273C609.911 431.846 610.983 431.32 612 430.701C611.989 429.644 611.887 428.59 611.696 427.55Z" fill="#3F3D56"/>
<path id="Vector_19" d="M484.5 342C473.73 342 465 333.27 465 322.5C465 311.73 473.73 303 484.5 303C495.27 303 504 311.73 504 322.5C504 333.27 495.27 342 484.5 342Z" fill="#FFBFC5"/>
<path id="Vector_20" d="M471.08 312.984C470.602 313.831 469.884 314.507 469.021 314.923C468.158 315.339 467.192 315.473 466.252 315.309C465.316 315.117 464.431 314.723 463.654 314.154C462.877 313.585 462.226 312.854 461.743 312.009C460.789 310.312 460.22 308.417 460.077 306.463C459.913 304.937 459.937 303.267 460.895 302.076C461.623 301.345 462.462 300.741 463.379 300.286C464.648 299.487 465.715 298.392 466.493 297.09C467.038 296.155 467.436 295.14 467.926 294.181C469.709 290.705 473.182 287.876 477.006 288.004C478.843 288.068 480.595 288.803 482.41 289.107C488.491 290.202 495.094 286.901 500.74 289.475C502.126 290.167 503.415 291.049 504.571 292.096C506.16 293.443 507.686 294.86 509.15 296.347C510.421 297.458 511.383 298.894 511.937 300.51C512.716 303.467 510.886 306.767 512.046 309.58C512.44 310.386 512.912 311.149 513.456 311.857C514.733 313.783 513.347 321.303 513.456 323.628C513.614 324.757 513.335 325.905 512.677 326.824C511.751 327.887 510.201 327.975 508.784 327.991H506.237C505.857 328.02 505.475 327.979 505.108 327.871C504.608 327.646 504.167 327.301 503.824 326.864C501.706 324.571 501.254 317.083 498.178 317.115C497.709 317.083 497.242 317.206 496.847 317.467C496.294 317.882 496.13 318.658 495.733 319.233C495.282 319.781 494.672 320.165 493.991 320.329C493.311 320.493 492.598 320.428 491.956 320.144C490.687 319.539 489.582 318.622 488.74 317.475C487.904 316.329 486.888 315.333 485.735 314.526C484.092 313.543 482.238 313.12 480.642 312.009C479.311 311.082 478.555 309.74 477.356 308.717C476.157 307.694 475.145 307.838 473.868 308.517C472.022 309.564 471.944 311.226 471.08 312.984Z" fill="#3F3D56"/>
<path id="Vector_21" opacity="0.1" d="M515.759 348.314C511.232 347.658 506.618 348.032 502.251 349.409C500.792 349.751 499.476 350.547 498.485 351.686C497.917 352.545 497.549 353.524 497.406 354.549C496.516 359.261 497.089 364.137 499.047 368.504C499.185 368.722 499.276 368.967 499.314 369.223C499.353 369.479 499.338 369.74 499.27 369.99C499.071 370.303 498.808 370.57 498.5 370.772C498.228 371.039 498.016 371.361 497.875 371.717C497.735 372.073 497.67 372.456 497.685 372.839C497.701 373.222 497.796 373.598 497.964 373.942C498.132 374.285 498.37 374.589 498.662 374.832C499.024 375.098 499.501 375.333 499.57 375.779C499.64 376.225 499.193 376.655 498.839 376.999C498.322 377.513 497.941 378.15 497.732 378.853C497.522 379.556 497.489 380.301 497.637 381.02C497.828 381.596 497.96 382.191 498.03 382.795C497.953 383.537 497.736 384.257 497.391 384.915C496.802 386.403 496.603 388.02 496.813 389.609C497 390.359 497.018 391.142 496.867 391.901C496.651 392.402 496.36 392.866 496.005 393.277C494.611 395.186 494.31 398.378 496.328 399.535C495.464 399.987 494.759 400.702 494.314 401.58C493.868 402.457 493.702 403.455 493.841 404.432C492.632 403.783 491.168 404.62 490.159 405.559C489.151 406.497 488.126 407.655 486.763 407.725C485.808 407.772 484.799 407.272 483.937 407.671C482.612 408.273 482.658 410.455 481.357 411.105C480.217 411.684 478.623 410.745 477.652 411.582C477.314 411.871 477.144 412.317 476.813 412.622C476.081 413.311 474.926 413.021 473.925 412.974C471.561 412.88 469.381 414.539 468.157 416.557C466.932 418.575 466.493 421.039 466.177 423.417C465.917 424.724 465.944 426.072 466.254 427.367C466.418 428.011 466.764 428.592 467.25 429.037C467.737 429.482 468.341 429.772 468.988 429.871C480.887 430.653 492.632 427.751 504.222 424.888C507.626 424.043 511.084 423.057 513.926 420.977C516.506 419.076 518.4 416.4 520.249 413.772C523.66 408.914 527.095 404.025 529.537 398.604C532.679 391.635 534.08 384 535.451 376.451C535.924 374.429 536.093 372.345 535.952 370.272C535.537 367.847 534.624 365.539 533.272 363.497C531.641 360.793 529.84 358.199 527.881 355.73C524.9 351.999 520.441 348.995 515.759 348.314Z" fill="black"/>
<path id="Vector_22" d="M514.802 347.318C510.271 346.653 505.654 347.034 501.284 348.434C499.825 348.773 498.507 349.577 497.518 350.73C496.954 351.602 496.585 352.592 496.439 353.628C495.552 358.398 496.126 363.333 498.08 367.754C498.218 367.974 498.309 368.222 498.347 368.481C498.386 368.74 498.371 369.005 498.303 369.258C498.104 369.575 497.842 369.845 497.533 370.05C497.262 370.32 497.049 370.646 496.908 371.006C496.768 371.367 496.703 371.754 496.718 372.142C496.734 372.53 496.829 372.91 496.997 373.258C497.165 373.605 497.403 373.913 497.695 374.159C498.057 374.428 498.534 374.666 498.604 375.117C498.673 375.568 498.226 376.004 497.834 376.352C497.317 376.872 496.936 377.518 496.726 378.229C496.516 378.94 496.484 379.695 496.632 380.422C496.823 381.006 496.955 381.608 497.025 382.219C496.951 382.97 496.736 383.698 496.393 384.365C495.799 385.869 495.597 387.507 495.808 389.116C496.046 389.748 496.096 390.438 495.952 391.099C495.808 391.76 495.476 392.362 494.999 392.829C493.605 394.761 493.305 397.992 495.323 399.211C494.458 399.666 493.753 400.388 493.307 401.275C492.861 402.163 492.696 403.171 492.835 404.16C491.625 403.503 490.162 404.35 489.153 405.3C488.144 406.25 487.119 407.422 485.756 407.493C484.801 407.541 483.8 407.034 482.929 407.438C481.604 408.055 481.651 410.257 480.349 410.922C479.209 411.5 477.615 410.549 476.644 411.397C476.305 411.69 476.136 412.141 475.805 412.45C475.073 413.147 473.917 412.854 472.916 412.806C470.551 412.711 468.372 414.39 467.147 416.432C466.032 418.583 465.358 420.947 465.167 423.376C464.921 424.687 464.947 426.036 465.244 427.335C465.408 427.987 465.754 428.575 466.241 429.025C466.727 429.476 467.331 429.769 467.979 429.869C479.879 430.661 491.625 427.723 503.218 424.825C506.622 423.97 510.088 422.973 512.923 420.866C515.503 418.95 517.398 416.234 519.246 413.574C522.659 408.665 526.094 403.716 528.536 398.229C531.678 391.167 533.08 383.439 534.451 375.806C534.924 373.756 535.093 371.645 534.952 369.543C534.559 367.092 533.669 364.753 532.341 362.678C530.714 359.941 528.913 357.317 526.949 354.824C523.937 351.031 519.478 347.999 514.802 347.318Z" fill="#3F3D56"/>
<g id="mega1">
<path id="Vector_23" d="M36.5938 230.189C34.513 229.784 32.5357 228.945 30.7842 227.725C29.0327 226.506 27.5442 224.931 26.411 223.098C25.2778 221.266 24.5238 219.215 24.1959 217.072C23.868 214.929 23.973 212.74 24.5045 210.641C25.036 208.541 25.9826 206.576 27.2858 204.866C28.589 203.156 30.221 201.738 32.0809 200.7C33.9407 199.662 35.9888 199.026 38.0984 198.831C40.208 198.636 42.3343 198.887 44.3455 199.567C38.3148 208.519 35.5691 219.365 36.5938 230.189V230.189Z" fill="#F1F1F1"/>
<path id="Vector_24" d="M12.5845 223.781C10.5037 223.376 8.52634 222.537 6.77482 221.317C5.02329 220.097 3.53492 218.523 2.40169 216.69C1.26847 214.858 0.514541 212.807 0.186609 210.664C-0.141323 208.521 -0.0362776 206.332 0.495197 204.233C1.02667 202.133 1.97325 200.168 3.27643 198.458C4.57961 196.748 6.21162 195.33 8.07147 194.292C9.93131 193.254 11.9794 192.618 14.089 192.423C16.1986 192.228 18.3249 192.479 20.3361 193.159C14.3054 202.11 11.5598 212.957 12.5845 223.781V223.781Z" fill="#F1F1F1"/>
<path id="Vector_25" d="M36.5938 230.189C40.4548 230.942 44.4509 230.163 47.7714 228.01C51.092 225.857 53.4884 222.491 54.4745 218.595C55.4607 214.7 54.9627 210.566 53.0817 207.032C51.2007 203.498 48.0775 200.83 44.3455 199.567C49.5712 191.819 56.9933 185.899 65.6095 182.608C74.2256 179.316 83.6207 178.812 92.5258 181.162C73.9422 206.584 65.3945 238.243 68.5858 269.829C60.0044 267.235 52.375 262.076 46.6752 255.014C40.9754 247.952 37.465 239.308 36.5938 230.189V230.189Z" fill="#F1F1F1"/>
<path id="Vector_26" d="M313.567 243.29C322.228 245.188 330.148 249.664 336.332 256.155C342.517 262.646 346.691 270.864 348.33 279.776C344.604 279.695 340.974 280.993 338.107 283.431C335.24 285.87 333.329 289.286 332.724 293.052C332.12 296.818 332.862 300.681 334.816 303.931C336.769 307.181 339.802 309.601 343.358 310.745C338.265 320.068 330.161 327.283 320.437 331.151C310.713 335.019 299.977 335.298 290.074 331.941C308.493 306.457 316.879 274.812 313.567 243.29V243.29Z" fill="#F1F1F1"/>
<path id="Vector_27" d="M348.315 279.776C350.538 279.817 352.726 280.347 354.731 281.331C356.735 282.315 358.51 283.729 359.933 285.477C361.357 287.226 362.396 289.268 362.981 291.464C363.565 293.66 363.681 295.959 363.32 298.206C362.959 300.452 362.131 302.592 360.89 304.481C359.65 306.37 358.027 307.964 356.132 309.154C354.236 310.343 352.113 311.101 349.906 311.376C347.699 311.65 345.461 311.435 343.342 310.745C348.483 301.334 350.242 290.377 348.315 279.776V279.776Z" fill="#F1F1F1"/>
<path id="Vector_28" d="M376.635 286.634C378.858 286.675 381.046 287.205 383.051 288.189C385.055 289.172 386.83 290.587 388.253 292.335C389.677 294.083 390.716 296.125 391.301 298.321C391.885 300.518 392.001 302.817 391.64 305.063C391.279 307.309 390.451 309.45 389.21 311.339C387.97 313.228 386.347 314.821 384.452 316.011C382.556 317.201 380.433 317.959 378.226 318.233C376.02 318.508 373.781 318.293 371.662 317.603C376.799 308.19 378.558 297.235 376.635 286.634Z" fill="#F1F1F1"/>
<path id="Vector_29" d="M139.528 142.295L164.477 173.595C163.279 175.518 162.227 177.531 161.328 179.617L133.863 145.164C135.749 144.116 137.619 143.154 139.528 142.295Z" fill="#F1F1F1"/>
<path id="Vector_30" d="M68.5858 269.829C74.2985 271.529 80.2842 272.051 86.1953 271.363C92.1064 270.675 97.8253 268.792 103.02 265.823C108.215 262.854 112.782 258.858 116.456 254.067C120.13 249.276 122.839 243.786 124.424 237.914C126.009 232.043 126.44 225.908 125.691 219.864C124.942 213.821 123.028 207.991 120.06 202.711C117.093 197.431 113.131 192.807 108.404 189.108C103.677 185.409 98.2802 182.708 92.5258 181.162C102.481 167.611 114.984 156.237 129.298 147.71L122.539 153.362L157.487 197.202C157.297 205.854 159.494 214.385 163.826 221.815C168.158 229.246 174.449 235.274 181.976 239.208C189.504 243.142 197.962 244.823 206.38 244.056C214.798 243.289 222.834 240.107 229.565 234.874C236.296 229.642 241.449 222.571 244.432 214.474C247.416 206.378 248.108 197.584 246.43 189.102C244.752 180.621 240.771 172.796 234.946 166.527C229.12 160.258 221.686 155.799 213.496 153.661L216.306 151.297L200.141 131.032C228.888 133.195 255.983 145.614 276.709 166.126C297.434 186.639 310.478 213.945 313.567 243.29C302.319 240.796 290.565 242.819 280.731 248.94C270.896 255.062 263.732 264.816 260.716 276.188C257.7 287.561 259.063 299.686 264.523 310.06C269.982 320.434 279.123 328.266 290.058 331.941C275.277 352.368 254.811 367.745 231.346 376.053C207.88 384.361 182.509 385.213 158.562 378.497C134.615 371.781 113.21 357.811 97.1532 338.419C81.0966 319.027 71.1387 295.118 68.5858 269.829V269.829ZM201.95 353.215C208.836 347.462 213.901 339.748 216.505 331.047C219.109 322.347 219.135 313.051 216.579 304.335C214.024 295.62 209.001 287.876 202.148 282.083C195.294 276.29 186.916 272.709 178.075 271.792C169.233 270.874 160.324 272.663 152.475 276.93C144.625 281.197 138.188 287.752 133.977 295.766C129.767 303.78 127.971 312.892 128.818 321.95C129.665 331.009 133.116 339.607 138.736 346.657C146.27 356.109 157.162 362.11 169.016 363.34C180.871 364.569 192.717 360.927 201.95 353.215V353.215Z" fill="#F1F1F1"/>
<path id="Vector_31" d="M174.9 131.788C177.337 131.457 179.785 131.194 182.243 131L199.24 152.329C196.855 152.493 194.486 152.854 192.158 153.409L174.9 131.788Z" fill="#F1F1F1"/>
<path id="Vector_32" d="M173.768 162.789L153.084 136.841C155.209 136.131 157.344 135.485 159.489 134.902L178.787 159.108C177.114 160.165 175.51 161.332 173.984 162.6L173.768 162.789Z" fill="#F1F1F1"/>
</g>
</g>
</svg>
