<svg width="1440" height="747" viewBox="0 0 1440 747" fill="none" xmlns="http://www.w3.org/2000/svg">
<path id="Vector" d="M-79 0L-34.2083 69.9738C10.5833 141.262 100.167 279.238 189.75 315.375C279.333 351.512 368.917 279.238 458.5 262.812C548.083 246.387 637.667 279.238 727.25 367.938C816.833 456.637 906.417 594.613 996 648.161C1085.58 699.738 1175.17 666.887 1264.75 595.599C1354.33 525.625 1443.92 420.5 1533.5 420.5C1623.08 420.5 1712.67 525.625 1802.25 560.776C1891.83 594.613 1981.42 561.762 2026.21 543.036L2071 525.625V841H2026.21C1981.42 841 1891.83 841 1802.25 841C1712.67 841 1623.08 841 1533.5 841C1443.92 841 1354.33 841 1264.75 841C1175.17 841 1085.58 841 996 841C906.417 841 816.833 841 727.25 841C637.667 841 548.083 841 458.5 841C368.917 841 279.333 841 189.75 841C100.167 841 10.5833 841 -34.2083 841H-79V0Z" fill="#00BFA6"/>
</svg>
