<svg width="1440" height="1024" viewBox="0 0 1440 1024" fill="none" xmlns="http://www.w3.org/2000/svg">
<g id="waves1" clip-path="url(#clip0)">
<rect width="1440" height="1024" fill="white"/>
<path id="Vector" d="M-79 277L-34.2083 346.974C10.5833 418.262 100.167 556.238 189.75 592.375C279.333 628.512 368.917 556.238 458.5 539.812C548.083 523.387 637.667 556.238 727.25 644.938C816.833 733.637 906.417 871.613 996 925.161C1085.58 976.738 1175.17 943.887 1264.75 872.599C1354.33 802.625 1443.92 697.5 1533.5 697.5C1623.08 697.5 1712.67 802.625 1802.25 837.776C1891.83 871.613 1981.42 838.762 2026.21 820.036L2071 802.625V1118H2026.21C1981.42 1118 1891.83 1118 1802.25 1118C1712.67 1118 1623.08 1118 1533.5 1118C1443.92 1118 1354.33 1118 1264.75 1118C1175.17 1118 1085.58 1118 996 1118C906.417 1118 816.833 1118 727.25 1118C637.667 1118 548.083 1118 458.5 1118C368.917 1118 279.333 1118 189.75 1118C100.167 1118 10.5833 1118 -34.2083 1118H-79V277Z" fill="#00BFA6"/>
</g>
<defs>
<clipPath id="clip0">
<rect width="1440" height="1024" fill="white"/>
</clipPath>
</defs>
</svg>
